<?xml version="1.0" encoding="UTF-8" standalone="no"?>
<!DOCTYPE svg PUBLIC "-//W3C//DTD SVG 1.1//EN"
 "http://www.w3.org/Graphics/SVG/1.1/DTD/svg11.dtd">
<!-- Generated by graphviz version 14.1.4 (20260321.0153)
 -->
<!-- Title: ACT_Dependencies Pages: 1 -->
<svg width="513pt" height="774pt"
 viewBox="0.00 0.00 513.00 774.00" xmlns="http://www.w3.org/2000/svg" xmlns:xlink="http://www.w3.org/1999/xlink">
<g id="graph0" class="graph" transform="scale(1 1) rotate(0) translate(4 769.68)">
<title>ACT_Dependencies</title>
<polygon fill="white" stroke="none" points="-4,4 -4,-769.68 509,-769.68 509,4 -4,4"/>
<g id="clust1" class="cluster">
<title>cluster_III</title>
<path fill="#f0f5eb" stroke="#6b9e3c" stroke-width="1.5" d="M33.8,-513.88C33.8,-513.88 485,-513.88 485,-513.88 491,-513.88 497,-519.88 497,-525.88 497,-525.88 497,-723.88 497,-723.88 497,-729.88 491,-735.88 485,-735.88 485,-735.88 33.8,-735.88 33.8,-735.88 27.8,-735.88 21.8,-729.88 21.8,-723.88 21.8,-723.88 21.8,-525.88 21.8,-525.88 21.8,-519.88 27.8,-513.88 33.8,-513.88"/>
<text xml:space="preserve" text-anchor="middle" x="259.4" y="-721.43" font-family="Times,serif" font-size="11.00" fill="#6b9e3c">Section III</text>
</g>
<!-- multi&#45;agent&#45;scope -->
<g id="node1" class="node">
<title>multi&#45;agent&#45;scope</title>
<polygon fill="#d8dcdc" stroke="#7f8888" points="102.19,-589.68 29.8,-589.68 29.8,-568.08 102.19,-568.08 102.19,-589.68"/>
<text xml:space="preserve" text-anchor="middle" x="66" y="-575.78" font-family="Helvetica,sans-Serif" font-size="8.00">multi&#45;agent&#45;scope</text>
</g>
<!-- composition&#45;closure -->
<g id="node2" class="node">
<title>composition&#45;closure</title>
<polygon fill="#bdd4e3" stroke="#427697" points="201.13,-597.76 147.13,-597.76 147.13,-574 201.13,-574 201.13,-597.76"/>
<text xml:space="preserve" text-anchor="middle" x="174.13" y="-587.28" font-family="Helvetica,sans-Serif" font-size="8.00">composition</text>
<text xml:space="preserve" text-anchor="middle" x="174.13" y="-578.28" font-family="Helvetica,sans-Serif" font-size="8.00">closure</text>
</g>
<!-- multi&#45;agent&#45;scope&#45;&gt;composition&#45;closure -->
<g id="edge20" class="edge">
<title>multi&#45;agent&#45;scope&#45;&gt;composition&#45;closure</title>
<path fill="none" stroke="#6b9e3c" d="M102.61,-583.41C102.61,-583.41 140.28,-583.41 140.28,-583.41"/>
<polygon fill="#6b9e3c" stroke="#6b9e3c" points="140.28,-585.16 145.28,-583.41 140.28,-581.66 140.28,-585.16"/>
</g>
<!-- directed&#45;separation&#45;under&#45;composition -->
<g id="node4" class="node">
<title>directed&#45;separation&#45;under&#45;composition</title>
<polygon fill="#f7d8bc" stroke="#c47e41" points="316.22,-590.26 246.08,-590.26 246.08,-557.5 316.22,-557.5 316.22,-590.26"/>
<text xml:space="preserve" text-anchor="middle" x="281.15" y="-579.78" font-family="Helvetica,sans-Serif" font-size="8.00">directed</text>
<text xml:space="preserve" text-anchor="middle" x="281.15" y="-570.78" font-family="Helvetica,sans-Serif" font-size="8.00">separation&#45;under</text>
<text xml:space="preserve" text-anchor="middle" x="281.15" y="-561.78" font-family="Helvetica,sans-Serif" font-size="8.00">composition</text>
</g>
<!-- multi&#45;agent&#45;scope&#45;&gt;directed&#45;separation&#45;under&#45;composition -->
<g id="edge8" class="edge">
<title>multi&#45;agent&#45;scope&#45;&gt;directed&#45;separation&#45;under&#45;composition</title>
<path fill="none" stroke="#6b9e3c" d="M66,-567.59C66,-565.82 66,-564.55 66,-564.55 66,-564.55 239.11,-564.55 239.11,-564.55"/>
<polygon fill="#6b9e3c" stroke="#6b9e3c" points="239.11,-566.3 244.11,-564.55 239.11,-562.8 239.11,-566.3"/>
</g>
<!-- unity&#45;dimensions -->
<g id="node5" class="node">
<title>unity&#45;dimensions</title>
<polygon fill="#f2e6b6" stroke="#b89d33" points="315.09,-661.68 247.2,-661.68 247.2,-640.08 315.09,-640.08 315.09,-661.68"/>
<text xml:space="preserve" text-anchor="middle" x="281.15" y="-647.78" font-family="Helvetica,sans-Serif" font-size="8.00">unity&#45;dimensions</text>
</g>
<!-- multi&#45;agent&#45;scope&#45;&gt;unity&#45;dimensions -->
<g id="edge15" class="edge">
<title>multi&#45;agent&#45;scope&#45;&gt;unity&#45;dimensions</title>
<path fill="none" stroke="#6b9e3c" d="M56,-590.03C56,-611.56 56,-656.72 56,-656.72 56,-656.72 240.44,-656.72 240.44,-656.72"/>
<polygon fill="#6b9e3c" stroke="#6b9e3c" points="240.44,-658.47 245.44,-656.72 240.44,-654.97 240.44,-658.47"/>
</g>
<!-- communication&#45;gain -->
<g id="node8" class="node">
<title>communication&#45;gain</title>
<polygon fill="#f7d8bc" stroke="#c47e41" points="214.08,-543.68 134.19,-543.68 134.19,-522.08 214.08,-522.08 214.08,-543.68"/>
<text xml:space="preserve" text-anchor="middle" x="174.13" y="-529.78" font-family="Helvetica,sans-Serif" font-size="8.00">communication&#45;gain</text>
</g>
<!-- multi&#45;agent&#45;scope&#45;&gt;communication&#45;gain -->
<g id="edge14" class="edge">
<title>multi&#45;agent&#45;scope&#45;&gt;communication&#45;gain</title>
<path fill="none" stroke="#6b9e3c" d="M102.66,-580.27C122.1,-580.27 142,-580.27 142,-580.27 142,-580.27 142,-550.39 142,-550.39"/>
<polygon fill="#6b9e3c" stroke="#6b9e3c" points="143.75,-550.39 142,-545.39 140.25,-550.39 143.75,-550.39"/>
</g>
<!-- tempo&#45;composition -->
<g id="node3" class="node">
<title>tempo&#45;composition</title>
<polygon fill="#dfe4e4" stroke="#8e9899" points="319.22,-625.68 243.08,-625.68 243.08,-604.08 319.22,-604.08 319.22,-625.68"/>
<text xml:space="preserve" text-anchor="middle" x="281.15" y="-611.78" font-family="Helvetica,sans-Serif" font-size="8.00">tempo&#45;composition</text>
</g>
<!-- composition&#45;closure&#45;&gt;tempo&#45;composition -->
<g id="edge44" class="edge">
<title>composition&#45;closure&#45;&gt;tempo&#45;composition</title>
<path fill="none" stroke="#6b9e3c" d="M174,-597.98C174,-604.53 174,-611.28 174,-611.28 174,-611.28 236.26,-611.28 236.26,-611.28"/>
<polygon fill="#6b9e3c" stroke="#6b9e3c" points="236.26,-613.03 241.26,-611.28 236.26,-609.53 236.26,-613.03"/>
</g>
<!-- composition&#45;closure&#45;&gt;directed&#45;separation&#45;under&#45;composition -->
<g id="edge9" class="edge">
<title>composition&#45;closure&#45;&gt;directed&#45;separation&#45;under&#45;composition</title>
<path fill="none" stroke="#6b9e3c" d="M201.42,-587.01C201.42,-587.01 239.31,-587.01 239.31,-587.01"/>
<polygon fill="#6b9e3c" stroke="#6b9e3c" points="239.31,-588.76 244.31,-587.01 239.31,-585.26 239.31,-588.76"/>
</g>
<!-- composition&#45;closure&#45;&gt;unity&#45;dimensions -->
<g id="edge16" class="edge">
<title>composition&#45;closure&#45;&gt;unity&#45;dimensions</title>
<path fill="none" stroke="#6b9e3c" d="M201.59,-594.01C218.9,-594.01 238,-594.01 238,-594.01 238,-594.01 238,-645.92 238,-645.92 238,-645.92 240.22,-645.92 240.22,-645.92"/>
<polygon fill="#6b9e3c" stroke="#6b9e3c" points="240.22,-647.67 245.22,-645.92 240.22,-644.17 240.22,-647.67"/>
</g>
<!-- shared&#45;intent -->
<g id="node6" class="node">
<title>shared&#45;intent</title>
<polygon fill="#bed8ea" stroke="#4680a6" points="404.11,-648.68 348.22,-648.68 348.22,-627.08 404.11,-627.08 404.11,-648.68"/>
<text xml:space="preserve" text-anchor="middle" x="376.16" y="-634.78" font-family="Helvetica,sans-Serif" font-size="8.00">shared&#45;intent</text>
</g>
<!-- unity&#45;dimensions&#45;&gt;shared&#45;intent -->
<g id="edge10" class="edge">
<title>unity&#45;dimensions&#45;&gt;shared&#45;intent</title>
<path fill="none" stroke="#6b9e3c" d="M315.45,-645.81C315.45,-645.81 341.34,-645.81 341.34,-645.81"/>
<polygon fill="#6b9e3c" stroke="#6b9e3c" points="341.34,-647.56 346.34,-645.81 341.34,-644.06 341.34,-647.56"/>
</g>
<!-- auftragstaktik&#45;principle -->
<g id="node7" class="node">
<title>auftragstaktik&#45;principle</title>
<polygon fill="#f7d8bc" stroke="#c47e41" points="489,-662.76 433.11,-662.76 433.11,-639 489,-639 489,-662.76"/>
<text xml:space="preserve" text-anchor="middle" x="461.06" y="-652.28" font-family="Helvetica,sans-Serif" font-size="8.00">auftragstaktik</text>
<text xml:space="preserve" text-anchor="middle" x="461.06" y="-643.28" font-family="Helvetica,sans-Serif" font-size="8.00">principle</text>
</g>
<!-- unity&#45;dimensions&#45;&gt;auftragstaktik&#45;principle -->
<g id="edge34" class="edge">
<title>unity&#45;dimensions&#45;&gt;auftragstaktik&#45;principle</title>
<path fill="none" stroke="#6b9e3c" d="M315.41,-655.18C315.41,-655.18 426.32,-655.18 426.32,-655.18"/>
<polygon fill="#6b9e3c" stroke="#6b9e3c" points="426.32,-656.93 431.32,-655.18 426.32,-653.43 426.32,-656.93"/>
</g>
<!-- shared&#45;intent&#45;&gt;auftragstaktik&#45;principle -->
<g id="edge33" class="edge">
<title>shared&#45;intent&#45;&gt;auftragstaktik&#45;principle</title>
<path fill="none" stroke="#6b9e3c" d="M404.43,-643.84C404.43,-643.84 426.11,-643.84 426.11,-643.84"/>
<polygon fill="#6b9e3c" stroke="#6b9e3c" points="426.11,-645.59 431.11,-643.84 426.11,-642.09 426.11,-645.59"/>
</g>
<!-- team&#45;persistence -->
<g id="node9" class="node">
<title>team&#45;persistence</title>
<polygon fill="#bee6cf" stroke="#449e6a" points="316.22,-543.68 246.08,-543.68 246.08,-522.08 316.22,-522.08 316.22,-543.68"/>
<text xml:space="preserve" text-anchor="middle" x="281.15" y="-529.78" font-family="Helvetica,sans-Serif" font-size="8.00">team&#45;persistence</text>
</g>
<!-- communication&#45;gain&#45;&gt;team&#45;persistence -->
<g id="edge31" class="edge">
<title>communication&#45;gain&#45;&gt;team&#45;persistence</title>
<path fill="none" stroke="#6b9e3c" d="M214.29,-532.88C214.29,-532.88 239.18,-532.88 239.18,-532.88"/>
<polygon fill="#6b9e3c" stroke="#6b9e3c" points="239.18,-534.63 244.18,-532.88 239.18,-531.13 239.18,-534.63"/>
</g>
<!-- adversarial&#45;destabilization -->
<g id="node10" class="node">
<title>adversarial&#45;destabilization</title>
<polygon fill="#bee6cf" stroke="#449e6a" points="95.06,-689.76 36.93,-689.76 36.93,-666 95.06,-666 95.06,-689.76"/>
<text xml:space="preserve" text-anchor="middle" x="66" y="-679.28" font-family="Helvetica,sans-Serif" font-size="8.00">adversarial</text>
<text xml:space="preserve" text-anchor="middle" x="66" y="-670.28" font-family="Helvetica,sans-Serif" font-size="8.00">destabilization</text>
</g>
<!-- adversarial&#45;tempo&#45;advantage -->
<g id="node11" class="node">
<title>adversarial&#45;tempo&#45;advantage</title>
<polygon fill="#bbdac8" stroke="#3e825b" points="210.7,-651.76 137.56,-651.76 137.56,-628 210.7,-628 210.7,-651.76"/>
<text xml:space="preserve" text-anchor="middle" x="174.13" y="-641.28" font-family="Helvetica,sans-Serif" font-size="8.00">adversarial&#45;tempo</text>
<text xml:space="preserve" text-anchor="middle" x="174.13" y="-632.28" font-family="Helvetica,sans-Serif" font-size="8.00">advantage</text>
</g>
<!-- adversarial&#45;destabilization&#45;&gt;adversarial&#45;tempo&#45;advantage -->
<g id="edge37" class="edge">
<title>adversarial&#45;destabilization&#45;&gt;adversarial&#45;tempo&#45;advantage</title>
<path fill="none" stroke="#6b9e3c" d="M76,-665.58C76,-656.54 76,-645.82 76,-645.82 76,-645.82 130.8,-645.82 130.8,-645.82"/>
<polygon fill="#6b9e3c" stroke="#6b9e3c" points="130.8,-647.57 135.8,-645.82 130.8,-644.07 130.8,-647.57"/>
</g>
<!-- adversarial&#45;exponent&#45;regimes -->
<g id="node12" class="node">
<title>adversarial&#45;exponent&#45;regimes</title>
<polygon fill="#bbdac8" stroke="#3e825b" points="317.72,-702.76 244.58,-702.76 244.58,-679 317.72,-679 317.72,-702.76"/>
<text xml:space="preserve" text-anchor="middle" x="281.15" y="-692.28" font-family="Helvetica,sans-Serif" font-size="8.00">adversarial</text>
<text xml:space="preserve" text-anchor="middle" x="281.15" y="-683.28" font-family="Helvetica,sans-Serif" font-size="8.00">exponent&#45;regimes</text>
</g>
<!-- adversarial&#45;destabilization&#45;&gt;adversarial&#45;exponent&#45;regimes -->
<g id="edge39" class="edge">
<title>adversarial&#45;destabilization&#45;&gt;adversarial&#45;exponent&#45;regimes</title>
<path fill="none" stroke="#6b9e3c" d="M66,-690.04C66,-693.46 66,-696.26 66,-696.26 66,-696.26 237.65,-696.26 237.65,-696.26"/>
<polygon fill="#6b9e3c" stroke="#6b9e3c" points="237.65,-698.01 242.65,-696.26 237.65,-694.51 237.65,-698.01"/>
</g>
<!-- observation&#45;gates&#45;advantage -->
<g id="node13" class="node">
<title>observation&#45;gates&#45;advantage</title>
<polygon fill="#f7c9c4" stroke="#c45d52" points="210.33,-689.76 137.94,-689.76 137.94,-666 210.33,-666 210.33,-689.76"/>
<text xml:space="preserve" text-anchor="middle" x="174.13" y="-679.28" font-family="Helvetica,sans-Serif" font-size="8.00">observation&#45;gates</text>
<text xml:space="preserve" text-anchor="middle" x="174.13" y="-670.28" font-family="Helvetica,sans-Serif" font-size="8.00">advantage</text>
</g>
<!-- adversarial&#45;destabilization&#45;&gt;observation&#45;gates&#45;advantage -->
<g id="edge26" class="edge">
<title>adversarial&#45;destabilization&#45;&gt;observation&#45;gates&#45;advantage</title>
<path fill="none" stroke="#6b9e3c" d="M95.54,-686.37C95.54,-686.37 131.16,-686.37 131.16,-686.37"/>
<polygon fill="#6b9e3c" stroke="#6b9e3c" points="131.16,-688.12 136.16,-686.37 131.16,-684.62 131.16,-688.12"/>
</g>
<!-- adversarial&#45;tempo&#45;advantage&#45;&gt;adversarial&#45;exponent&#45;regimes -->
<g id="edge40" class="edge">
<title>adversarial&#45;tempo&#45;advantage&#45;&gt;adversarial&#45;exponent&#45;regimes</title>
<path fill="none" stroke="#6b9e3c" d="M211.1,-648.84C218.99,-648.84 225,-648.84 225,-648.84 225,-648.84 225,-687.61 225,-687.61 225,-687.61 237.81,-687.61 237.81,-687.61"/>
<polygon fill="#6b9e3c" stroke="#6b9e3c" points="237.81,-689.36 242.81,-687.61 237.81,-685.86 237.81,-689.36"/>
</g>
<!-- per&#45;dimension&#45;persistence -->
<g id="node14" class="node">
<title>per&#45;dimension&#45;persistence</title>
<polygon fill="#bbdac8" stroke="#3e825b" points="95.81,-549.76 36.18,-549.76 36.18,-526 95.81,-526 95.81,-549.76"/>
<text xml:space="preserve" text-anchor="middle" x="66" y="-539.28" font-family="Helvetica,sans-Serif" font-size="8.00">per&#45;dimension</text>
<text xml:space="preserve" text-anchor="middle" x="66" y="-530.28" font-family="Helvetica,sans-Serif" font-size="8.00">persistence</text>
</g>
<!-- mismatch&#45;dynamics -->
<g id="node15" class="node">
<title>mismatch&#45;dynamics</title>
<polygon fill="none" stroke="#cccccc" stroke-dasharray="5,2" points="105.19,-169.68 26.8,-169.68 26.8,-148.08 105.19,-148.08 105.19,-169.68"/>
<text xml:space="preserve" text-anchor="middle" x="66" y="-155.78" font-family="Helvetica,sans-Serif" font-size="8.00" fill="#999999">mismatch&#45;dynamics</text>
</g>
<!-- mismatch&#45;dynamics&#45;&gt;adversarial&#45;tempo&#45;advantage -->
<g id="edge36" class="edge">
<title>mismatch&#45;dynamics&#45;&gt;adversarial&#45;tempo&#45;advantage</title>
<path fill="none" stroke="#aaaaaa" d="M105.66,-158.88C117.32,-158.88 127,-158.88 127,-158.88 127,-158.88 127,-633.94 127,-633.94 127,-633.94 130.95,-633.94 130.95,-633.94"/>
<polygon fill="#aaaaaa" stroke="#aaaaaa" points="130.95,-635.69 135.95,-633.94 130.95,-632.19 130.95,-635.69"/>
</g>
<!-- agent&#45;environment -->
<g id="node16" class="node">
<title>agent&#45;environment</title>
<polygon fill="none" stroke="#cccccc" stroke-dasharray="5,2" points="104.06,-133.68 27.93,-133.68 27.93,-112.08 104.06,-112.08 104.06,-133.68"/>
<text xml:space="preserve" text-anchor="middle" x="66" y="-119.78" font-family="Helvetica,sans-Serif" font-size="8.00" fill="#999999">agent&#45;environment</text>
</g>
<!-- agent&#45;environment&#45;&gt;composition&#45;closure -->
<g id="edge21" class="edge">
<title>agent&#45;environment&#45;&gt;composition&#45;closure</title>
<path fill="none" stroke="#aaaaaa" d="M104.56,-122.88C150.76,-122.88 222,-122.88 222,-122.88 222,-122.88 222,-583.76 222,-583.76 222,-583.76 207.94,-583.76 207.94,-583.76"/>
<polygon fill="#aaaaaa" stroke="#aaaaaa" points="207.94,-582.01 202.94,-583.76 207.94,-585.51 207.94,-582.01"/>
</g>
<!-- information&#45;bottleneck -->
<g id="node17" class="node">
<title>information&#45;bottleneck</title>
<polygon fill="none" stroke="#cccccc" stroke-dasharray="5,2" points="93,-469.76 39,-469.76 39,-446 93,-446 93,-469.76"/>
<text xml:space="preserve" text-anchor="middle" x="66" y="-459.28" font-family="Helvetica,sans-Serif" font-size="8.00" fill="#999999">information</text>
<text xml:space="preserve" text-anchor="middle" x="66" y="-450.28" font-family="Helvetica,sans-Serif" font-size="8.00" fill="#999999">bottleneck</text>
</g>
<!-- information&#45;bottleneck&#45;&gt;shared&#45;intent -->
<g id="edge11" class="edge">
<title>information&#45;bottleneck&#45;&gt;shared&#45;intent</title>
<path fill="none" stroke="#aaaaaa" d="M93.24,-457.88C167.33,-457.88 367,-457.88 367,-457.88 367,-457.88 367,-620.11 367,-620.11"/>
<polygon fill="#aaaaaa" stroke="#aaaaaa" points="365.25,-620.11 367,-625.11 368.75,-620.11 365.25,-620.11"/>
</g>
<!-- directed&#45;separation -->
<g id="node18" class="node">
<title>directed&#45;separation</title>
<polygon fill="none" stroke="#cccccc" stroke-dasharray="5,2" points="93,-393.76 39,-393.76 39,-370 93,-370 93,-393.76"/>
<text xml:space="preserve" text-anchor="middle" x="66" y="-383.28" font-family="Helvetica,sans-Serif" font-size="8.00" fill="#999999">directed</text>
<text xml:space="preserve" text-anchor="middle" x="66" y="-374.28" font-family="Helvetica,sans-Serif" font-size="8.00" fill="#999999">separation</text>
</g>
<!-- directed&#45;separation&#45;&gt;directed&#45;separation&#45;under&#45;composition -->
<g id="edge7" class="edge">
<title>directed&#45;separation&#45;&gt;directed&#45;separation&#45;under&#45;composition</title>
<path fill="none" stroke="#aaaaaa" d="M93.15,-381.88C140.92,-381.88 235,-381.88 235,-381.88 235,-381.88 235,-561.03 235,-561.03 235,-561.03 239.19,-561.03 239.19,-561.03"/>
<polygon fill="#aaaaaa" stroke="#aaaaaa" points="239.19,-562.78 244.19,-561.03 239.19,-559.28 239.19,-562.78"/>
</g>
<!-- persistence&#45;condition -->
<g id="node19" class="node">
<title>persistence&#45;condition</title>
<polygon fill="none" stroke="#cccccc" stroke-dasharray="5,2" points="93,-355.76 39,-355.76 39,-332 93,-332 93,-355.76"/>
<text xml:space="preserve" text-anchor="middle" x="66" y="-345.28" font-family="Helvetica,sans-Serif" font-size="8.00" fill="#999999">persistence</text>
<text xml:space="preserve" text-anchor="middle" x="66" y="-336.28" font-family="Helvetica,sans-Serif" font-size="8.00" fill="#999999">condition</text>
</g>
<!-- persistence&#45;condition&#45;&gt;composition&#45;closure -->
<g id="edge25" class="edge">
<title>persistence&#45;condition&#45;&gt;composition&#45;closure</title>
<path fill="none" stroke="#aaaaaa" d="M93.22,-343.88C111.4,-343.88 132,-343.88 132,-343.88 132,-343.88 132,-577.14 132,-577.14 132,-577.14 140.22,-577.14 140.22,-577.14"/>
<polygon fill="#aaaaaa" stroke="#aaaaaa" points="140.22,-578.89 145.22,-577.14 140.22,-575.39 140.22,-578.89"/>
</g>
<!-- persistence&#45;condition&#45;&gt;team&#45;persistence -->
<g id="edge29" class="edge">
<title>persistence&#45;condition&#45;&gt;team&#45;persistence</title>
<path fill="none" stroke="#aaaaaa" d="M93.23,-335.96C151.08,-335.96 281,-335.96 281,-335.96 281,-335.96 281,-515.21 281,-515.21"/>
<polygon fill="#aaaaaa" stroke="#aaaaaa" points="279.25,-515.21 281,-520.21 282.75,-515.21 279.25,-515.21"/>
</g>
<!-- persistence&#45;condition&#45;&gt;adversarial&#45;tempo&#45;advantage -->
<g id="edge38" class="edge">
<title>persistence&#45;condition&#45;&gt;adversarial&#45;tempo&#45;advantage</title>
<path fill="none" stroke="#aaaaaa" d="M93.42,-347.84C108.83,-347.84 125,-347.84 125,-347.84 125,-347.84 125,-639.88 125,-639.88 125,-639.88 130.63,-639.88 130.63,-639.88"/>
<polygon fill="#aaaaaa" stroke="#aaaaaa" points="130.63,-641.63 135.63,-639.88 130.63,-638.13 130.63,-641.63"/>
</g>
<!-- persistence&#45;condition&#45;&gt;adversarial&#45;exponent&#45;regimes -->
<g id="edge42" class="edge">
<title>persistence&#45;condition&#45;&gt;adversarial&#45;exponent&#45;regimes</title>
<path fill="none" stroke="#aaaaaa" d="M93.45,-339.92C140.13,-339.92 230,-339.92 230,-339.92 230,-339.92 230,-683.3 230,-683.3 230,-683.3 237.73,-683.3 237.73,-683.3"/>
<polygon fill="#aaaaaa" stroke="#aaaaaa" points="237.73,-685.05 242.73,-683.3 237.73,-681.55 237.73,-685.05"/>
</g>
<!-- persistence&#45;condition&#45;&gt;per&#45;dimension&#45;persistence -->
<g id="edge4" class="edge">
<title>persistence&#45;condition&#45;&gt;per&#45;dimension&#45;persistence</title>
<path fill="none" stroke="#aaaaaa" d="M93.12,-351.8C100.74,-351.8 107,-351.8 107,-351.8 107,-351.8 107,-531.89 107,-531.89 107,-531.89 102.74,-531.89 102.74,-531.89"/>
<polygon fill="#aaaaaa" stroke="#aaaaaa" points="102.74,-530.14 97.74,-531.89 102.74,-533.64 102.74,-530.14"/>
</g>
<!-- objective&#45;functional -->
<g id="node20" class="node">
<title>objective&#45;functional</title>
<polygon fill="none" stroke="#cccccc" stroke-dasharray="5,2" points="93,-431.76 39,-431.76 39,-408 93,-408 93,-431.76"/>
<text xml:space="preserve" text-anchor="middle" x="66" y="-421.28" font-family="Helvetica,sans-Serif" font-size="8.00" fill="#999999">objective</text>
<text xml:space="preserve" text-anchor="middle" x="66" y="-412.28" font-family="Helvetica,sans-Serif" font-size="8.00" fill="#999999">functional</text>
</g>
<!-- objective&#45;functional&#45;&gt;shared&#45;intent -->
<g id="edge12" class="edge">
<title>objective&#45;functional&#45;&gt;shared&#45;intent</title>
<path fill="none" stroke="#aaaaaa" d="M93.47,-419.88C170.85,-419.88 385,-419.88 385,-419.88 385,-419.88 385,-620.26 385,-620.26"/>
<polygon fill="#aaaaaa" stroke="#aaaaaa" points="383.25,-620.26 385,-625.26 386.75,-620.26 383.25,-620.26"/>
</g>
<!-- update&#45;gain -->
<g id="node21" class="node">
<title>update&#45;gain</title>
<polygon fill="none" stroke="#cccccc" stroke-dasharray="5,2" points="93,-97.68 39,-97.68 39,-76.08 93,-76.08 93,-97.68"/>
<text xml:space="preserve" text-anchor="middle" x="66" y="-83.78" font-family="Helvetica,sans-Serif" font-size="8.00" fill="#999999">update&#45;gain</text>
</g>
<!-- update&#45;gain&#45;&gt;communication&#45;gain -->
<g id="edge13" class="edge">
<title>update&#45;gain&#45;&gt;communication&#45;gain</title>
<path fill="none" stroke="#aaaaaa" d="M93.25,-83.28C125.24,-83.28 174,-83.28 174,-83.28 174,-83.28 174,-515.25 174,-515.25"/>
<polygon fill="#aaaaaa" stroke="#aaaaaa" points="172.25,-515.25 174,-520.25 175.75,-515.25 172.25,-515.25"/>
</g>
<!-- update&#45;gain&#45;&gt;observation&#45;gates&#45;advantage -->
<g id="edge27" class="edge">
<title>update&#45;gain&#45;&gt;observation&#45;gates&#45;advantage</title>
<path fill="none" stroke="#aaaaaa" d="M93.16,-90.48C107.84,-90.48 123,-90.48 123,-90.48 123,-90.48 123,-669.39 123,-669.39 123,-669.39 131,-669.39 131,-669.39"/>
<polygon fill="#aaaaaa" stroke="#aaaaaa" points="131,-671.14 136,-669.39 131,-667.64 131,-671.14"/>
</g>
<!-- strategy&#45;dimension -->
<g id="node22" class="node">
<title>strategy&#45;dimension</title>
<polygon fill="none" stroke="#cccccc" stroke-dasharray="5,2" points="104.06,-317.68 27.93,-317.68 27.93,-296.08 104.06,-296.08 104.06,-317.68"/>
<text xml:space="preserve" text-anchor="middle" x="66" y="-303.78" font-family="Helvetica,sans-Serif" font-size="8.00" fill="#999999">strategy&#45;dimension</text>
</g>
<!-- strategy&#45;dimension&#45;&gt;unity&#45;dimensions -->
<g id="edge18" class="edge">
<title>strategy&#45;dimension&#45;&gt;unity&#45;dimensions</title>
<path fill="none" stroke="#aaaaaa" d="M104.18,-306.88C155.4,-306.88 240,-306.88 240,-306.88 240,-306.88 240,-643 240,-643 240,-643 240.68,-643 240.68,-643"/>
<polygon fill="#aaaaaa" stroke="#aaaaaa" points="240.28,-644.75 245.28,-643 240.28,-641.25 240.28,-644.75"/>
</g>
<!-- scope&#45;condition -->
<g id="node23" class="node">
<title>scope&#45;condition</title>
<polygon fill="none" stroke="#cccccc" stroke-dasharray="5,2" points="98.06,-765.68 33.93,-765.68 33.93,-744.08 98.06,-744.08 98.06,-765.68"/>
<text xml:space="preserve" text-anchor="middle" x="66" y="-751.78" font-family="Helvetica,sans-Serif" font-size="8.00" fill="#999999">scope&#45;condition</text>
</g>
<!-- scope&#45;condition&#45;&gt;multi&#45;agent&#45;scope -->
<g id="edge46" class="edge">
<title>scope&#45;condition&#45;&gt;multi&#45;agent&#45;scope</title>
<path fill="none" stroke="#aaaaaa" d="M98.36,-754.88C109.39,-754.88 119,-754.88 119,-754.88 119,-754.88 119,-586.54 119,-586.54 119,-586.54 109.03,-586.54 109.03,-586.54"/>
<polygon fill="#aaaaaa" stroke="#aaaaaa" points="109.03,-584.79 104.03,-586.54 109.03,-588.29 109.03,-584.79"/>
</g>
<!-- agent&#45;model -->
<g id="node24" class="node">
<title>agent&#45;model</title>
<polygon fill="none" stroke="#cccccc" stroke-dasharray="5,2" points="93,-281.68 39,-281.68 39,-260.08 93,-260.08 93,-281.68"/>
<text xml:space="preserve" text-anchor="middle" x="66" y="-267.78" font-family="Helvetica,sans-Serif" font-size="8.00" fill="#999999">agent&#45;model</text>
</g>
<!-- agent&#45;model&#45;&gt;unity&#45;dimensions -->
<g id="edge17" class="edge">
<title>agent&#45;model&#45;&gt;unity&#45;dimensions</title>
<path fill="none" stroke="#aaaaaa" d="M93.17,-270.88C161.3,-270.88 334,-270.88 334,-270.88 334,-270.88 334,-642.95 334,-642.95 334,-642.95 322.03,-642.95 322.03,-642.95"/>
<polygon fill="#aaaaaa" stroke="#aaaaaa" points="322.03,-641.2 317.03,-642.95 322.03,-644.7 322.03,-641.2"/>
</g>
<!-- sector&#45;condition&#45;derivation -->
<g id="node25" class="node">
<title>sector&#45;condition&#45;derivation</title>
<polygon fill="none" stroke="#cccccc" stroke-dasharray="5,2" points="98.44,-245.76 33.55,-245.76 33.55,-222 98.44,-222 98.44,-245.76"/>
<text xml:space="preserve" text-anchor="middle" x="66" y="-235.28" font-family="Helvetica,sans-Serif" font-size="8.00" fill="#999999">sector&#45;condition</text>
<text xml:space="preserve" text-anchor="middle" x="66" y="-226.28" font-family="Helvetica,sans-Serif" font-size="8.00" fill="#999999">derivation</text>
</g>
<!-- sector&#45;condition&#45;derivation&#45;&gt;composition&#45;closure -->
<g id="edge24" class="edge">
<title>sector&#45;condition&#45;derivation&#45;&gt;composition&#45;closure</title>
<path fill="none" stroke="#cccccc" stroke-dasharray="5,2" d="M98.76,-231.5C143.17,-231.5 217,-231.5 217,-231.5 217,-231.5 217,-577.25 217,-577.25 217,-577.25 208.04,-577.25 208.04,-577.25"/>
<polygon fill="#cccccc" stroke="#cccccc" points="208.04,-575.5 203.04,-577.25 208.04,-579 208.04,-575.5"/>
</g>
<!-- sector&#45;condition&#45;derivation&#45;&gt;adversarial&#45;destabilization -->
<g id="edge2" class="edge">
<title>sector&#45;condition&#45;derivation&#45;&gt;adversarial&#45;destabilization</title>
<path fill="none" stroke="#cccccc" stroke-dasharray="5,2" d="M98.81,-236.26C107.25,-236.26 114,-236.26 114,-236.26 114,-236.26 114,-679.58 114,-679.58 114,-679.58 101.82,-679.58 101.82,-679.58"/>
<polygon fill="#cccccc" stroke="#cccccc" points="101.82,-677.83 96.82,-679.58 101.82,-681.33 101.82,-677.83"/>
</g>
<!-- sector&#45;condition&#45;derivation&#45;&gt;adversarial&#45;exponent&#45;regimes -->
<g id="edge43" class="edge">
<title>sector&#45;condition&#45;derivation&#45;&gt;adversarial&#45;exponent&#45;regimes</title>
<path fill="none" stroke="#cccccc" stroke-dasharray="5,2" d="M98.59,-226.75C147.19,-226.75 233,-226.75 233,-226.75 233,-226.75 233,-681.15 233,-681.15 233,-681.15 237.65,-681.15 237.65,-681.15"/>
<polygon fill="#cccccc" stroke="#cccccc" points="237.65,-682.9 242.65,-681.15 237.65,-679.4 237.65,-682.9"/>
</g>
<!-- sector&#45;condition&#45;derivation&#45;&gt;per&#45;dimension&#45;persistence -->
<g id="edge6" class="edge">
<title>sector&#45;condition&#45;derivation&#45;&gt;per&#45;dimension&#45;persistence</title>
<path fill="none" stroke="#cccccc" stroke-dasharray="5,2" d="M98.9,-241.01C105.26,-241.01 110,-241.01 110,-241.01 110,-241.01 110,-537.79 110,-537.79 110,-537.79 102.59,-537.79 102.59,-537.79"/>
<polygon fill="#cccccc" stroke="#cccccc" points="102.59,-536.04 97.59,-537.79 102.59,-539.54 102.59,-536.04"/>
</g>
<!-- composition&#45;consistency -->
<g id="node26" class="node">
<title>composition&#45;consistency</title>
<polygon fill="none" stroke="#cccccc" stroke-dasharray="5,2" points="93,-61.76 39,-61.76 39,-38 93,-38 93,-61.76"/>
<text xml:space="preserve" text-anchor="middle" x="66" y="-51.28" font-family="Helvetica,sans-Serif" font-size="8.00" fill="#999999">composition</text>
<text xml:space="preserve" text-anchor="middle" x="66" y="-42.28" font-family="Helvetica,sans-Serif" font-size="8.00" fill="#999999">consistency</text>
</g>
<!-- composition&#45;consistency&#45;&gt;multi&#45;agent&#45;scope -->
<g id="edge47" class="edge">
<title>composition&#45;consistency&#45;&gt;multi&#45;agent&#45;scope</title>
<path fill="none" stroke="#aaaaaa" d="M38.63,-53.84C27.85,-53.84 18,-53.84 18,-53.84 18,-53.84 18,-578.88 18,-578.88 18,-578.88 23.1,-578.88 23.1,-578.88"/>
<polygon fill="#aaaaaa" stroke="#aaaaaa" points="23.1,-580.63 28.1,-578.88 23.1,-577.13 23.1,-580.63"/>
</g>
<!-- composition&#45;consistency&#45;&gt;composition&#45;closure -->
<g id="edge19" class="edge">
<title>composition&#45;consistency&#45;&gt;composition&#45;closure</title>
<path fill="none" stroke="#aaaaaa" d="M38.5,-45.92C23.92,-45.92 9,-45.92 9,-45.92 9,-45.92 9,-592.37 9,-592.37 9,-592.37 140.35,-592.37 140.35,-592.37"/>
<polygon fill="#aaaaaa" stroke="#aaaaaa" points="140.35,-594.12 145.35,-592.37 140.35,-590.62 140.35,-594.12"/>
</g>
<!-- sector&#45;condition&#45;stability -->
<g id="node27" class="node">
<title>sector&#45;condition&#45;stability</title>
<polygon fill="none" stroke="#cccccc" stroke-dasharray="5,2" points="98.44,-207.76 33.55,-207.76 33.55,-184 98.44,-184 98.44,-207.76"/>
<text xml:space="preserve" text-anchor="middle" x="66" y="-197.28" font-family="Helvetica,sans-Serif" font-size="8.00" fill="#999999">sector&#45;condition</text>
<text xml:space="preserve" text-anchor="middle" x="66" y="-188.28" font-family="Helvetica,sans-Serif" font-size="8.00" fill="#999999">stability</text>
</g>
<!-- sector&#45;condition&#45;stability&#45;&gt;composition&#45;closure -->
<g id="edge23" class="edge">
<title>sector&#45;condition&#45;stability&#45;&gt;composition&#45;closure</title>
<path fill="none" stroke="#aaaaaa" d="M98.82,-195.88C143.78,-195.88 219,-195.88 219,-195.88 219,-195.88 219,-580.5 219,-580.5 219,-580.5 208.04,-580.5 208.04,-580.5"/>
<polygon fill="#aaaaaa" stroke="#aaaaaa" points="208.04,-578.75 203.04,-580.5 208.04,-582.25 208.04,-578.75"/>
</g>
<!-- sector&#45;condition&#45;stability&#45;&gt;team&#45;persistence -->
<g id="edge30" class="edge">
<title>sector&#45;condition&#45;stability&#45;&gt;team&#45;persistence</title>
<path fill="none" stroke="#aaaaaa" d="M98.88,-189.94C163.11,-189.94 299,-189.94 299,-189.94 299,-189.94 299,-515.34 299,-515.34"/>
<polygon fill="#aaaaaa" stroke="#aaaaaa" points="297.25,-515.34 299,-520.34 300.75,-515.34 297.25,-515.34"/>
</g>
<!-- sector&#45;condition&#45;stability&#45;&gt;adversarial&#45;destabilization -->
<g id="edge1" class="edge">
<title>sector&#45;condition&#45;stability&#45;&gt;adversarial&#45;destabilization</title>
<path fill="none" stroke="#aaaaaa" d="M98.79,-201.82C108.22,-201.82 116,-201.82 116,-201.82 116,-201.82 116,-682.97 116,-682.97 116,-682.97 101.89,-682.97 101.89,-682.97"/>
<polygon fill="#aaaaaa" stroke="#aaaaaa" points="101.89,-681.22 96.89,-682.97 101.89,-684.72 101.89,-681.22"/>
</g>
<!-- adaptive&#45;tempo -->
<g id="node28" class="node">
<title>adaptive&#45;tempo</title>
<polygon fill="none" stroke="#cccccc" stroke-dasharray="5,2" points="98.06,-505.68 33.93,-505.68 33.93,-484.08 98.06,-484.08 98.06,-505.68"/>
<text xml:space="preserve" text-anchor="middle" x="66" y="-491.78" font-family="Helvetica,sans-Serif" font-size="8.00" fill="#999999">adaptive&#45;tempo</text>
</g>
<!-- adaptive&#45;tempo&#45;&gt;tempo&#45;composition -->
<g id="edge45" class="edge">
<title>adaptive&#45;tempo&#45;&gt;tempo&#45;composition</title>
<path fill="none" stroke="#aaaaaa" d="M98.37,-496.42C114.25,-496.42 130,-496.42 130,-496.42 130,-496.42 130,-618.48 130,-618.48 130,-618.48 236.1,-618.48 236.1,-618.48"/>
<polygon fill="#aaaaaa" stroke="#aaaaaa" points="236.1,-620.23 241.1,-618.48 236.1,-616.73 236.1,-620.23"/>
</g>
<!-- adaptive&#45;tempo&#45;&gt;auftragstaktik&#45;principle -->
<g id="edge35" class="edge">
<title>adaptive&#45;tempo&#45;&gt;auftragstaktik&#45;principle</title>
<path fill="none" stroke="#aaaaaa" d="M98.32,-487.17C192.66,-487.17 461,-487.17 461,-487.17 461,-487.17 461,-632.06 461,-632.06"/>
<polygon fill="#aaaaaa" stroke="#aaaaaa" points="459.25,-632.06 461,-637.06 462.75,-632.06 459.25,-632.06"/>
</g>
<!-- adaptive&#45;tempo&#45;&gt;team&#45;persistence -->
<g id="edge32" class="edge">
<title>adaptive&#45;tempo&#45;&gt;team&#45;persistence</title>
<path fill="none" stroke="#aaaaaa" d="M98.25,-490.25C154.36,-490.25 264,-490.25 264,-490.25 264,-490.25 264,-515.17 264,-515.17"/>
<polygon fill="#aaaaaa" stroke="#aaaaaa" points="262.25,-515.17 264,-520.17 265.75,-515.17 262.25,-515.17"/>
</g>
<!-- adaptive&#45;tempo&#45;&gt;adversarial&#45;destabilization -->
<g id="edge3" class="edge">
<title>adaptive&#45;tempo&#45;&gt;adversarial&#45;destabilization</title>
<path fill="none" stroke="#aaaaaa" d="M98.45,-502.59C106.06,-502.59 112,-502.59 112,-502.59 112,-502.59 112,-676.18 112,-676.18 112,-676.18 101.9,-676.18 101.9,-676.18"/>
<polygon fill="#aaaaaa" stroke="#aaaaaa" points="101.9,-674.43 96.9,-676.18 101.9,-677.93 101.9,-674.43"/>
</g>
<!-- adaptive&#45;tempo&#45;&gt;adversarial&#45;exponent&#45;regimes -->
<g id="edge41" class="edge">
<title>adaptive&#45;tempo&#45;&gt;adversarial&#45;exponent&#45;regimes</title>
<path fill="none" stroke="#aaaaaa" d="M98.19,-493.34C145.18,-493.34 227,-493.34 227,-493.34 227,-493.34 227,-685.46 227,-685.46 227,-685.46 237.62,-685.46 237.62,-685.46"/>
<polygon fill="#aaaaaa" stroke="#aaaaaa" points="237.62,-687.21 242.62,-685.46 237.62,-683.71 237.62,-687.21"/>
</g>
<!-- adaptive&#45;tempo&#45;&gt;observation&#45;gates&#45;advantage -->
<g id="edge28" class="edge">
<title>adaptive&#45;tempo&#45;&gt;observation&#45;gates&#45;advantage</title>
<path fill="none" stroke="#aaaaaa" d="M98.31,-499.51C110.28,-499.51 121,-499.51 121,-499.51 121,-499.51 121,-672.79 121,-672.79 121,-672.79 131.01,-672.79 131.01,-672.79"/>
<polygon fill="#aaaaaa" stroke="#aaaaaa" points="131.01,-674.54 136.01,-672.79 131.01,-671.04 131.01,-674.54"/>
</g>
<!-- adaptive&#45;tempo&#45;&gt;per&#45;dimension&#45;persistence -->
<g id="edge5" class="edge">
<title>adaptive&#45;tempo&#45;&gt;per&#45;dimension&#45;persistence</title>
<path fill="none" stroke="#aaaaaa" d="M66,-506.18C66,-506.18 66,-519.09 66,-519.09"/>
<polygon fill="#aaaaaa" stroke="#aaaaaa" points="64.25,-519.09 66,-524.09 67.75,-519.09 64.25,-519.09"/>
</g>
<!-- event&#45;driven&#45;dynamics -->
<g id="node29" class="node">
<title>event&#45;driven&#45;dynamics</title>
<polygon fill="none" stroke="#cccccc" stroke-dasharray="5,2" points="93,-23.76 39,-23.76 39,0 93,0 93,-23.76"/>
<text xml:space="preserve" text-anchor="middle" x="66" y="-13.28" font-family="Helvetica,sans-Serif" font-size="8.00" fill="#999999">event&#45;driven</text>
<text xml:space="preserve" text-anchor="middle" x="66" y="-4.28" font-family="Helvetica,sans-Serif" font-size="8.00" fill="#999999">dynamics</text>
</g>
<!-- event&#45;driven&#45;dynamics&#45;&gt;composition&#45;closure -->
<g id="edge22" class="edge">
<title>event&#45;driven&#45;dynamics&#45;&gt;composition&#45;closure</title>
<path fill="none" stroke="#aaaaaa" d="M38.77,-11.88C20.59,-11.88 0,-11.88 0,-11.88 0,-11.88 0,-595.07 0,-595.07 0,-595.07 140.41,-595.07 140.41,-595.07"/>
<polygon fill="#aaaaaa" stroke="#aaaaaa" points="140.41,-596.82 145.41,-595.07 140.41,-593.32 140.41,-596.82"/>
</g>
</g>
</svg>
