<?xml version="1.0" encoding="UTF-8" standalone="no"?>
<!DOCTYPE svg PUBLIC "-//W3C//DTD SVG 1.1//EN"
 "http://www.w3.org/Graphics/SVG/1.1/DTD/svg11.dtd">
<!-- Generated by graphviz version 14.1.4 (20260321.0153)
 -->
<!-- Title: ACT_Dependencies Pages: 1 -->
<svg width="899pt" height="420pt"
 viewBox="0.00 0.00 899.00 420.00" xmlns="http://www.w3.org/2000/svg" xmlns:xlink="http://www.w3.org/1999/xlink">
<g id="graph0" class="graph" transform="scale(1 1) rotate(0) translate(4 415.88)">
<title>ACT_Dependencies</title>
<polygon fill="white" stroke="none" points="-4,4 -4,-415.88 894.87,-415.88 894.87,4 -4,4"/>
<g id="clust1" class="cluster">
<title>cluster_I</title>
<path fill="#eef3fa" stroke="#4a86c8" stroke-width="1.5" d="M20,-107.88C20,-107.88 870.87,-107.88 870.87,-107.88 876.87,-107.88 882.87,-113.88 882.87,-119.88 882.87,-119.88 882.87,-391.88 882.87,-391.88 882.87,-397.88 876.87,-403.88 870.87,-403.88 870.87,-403.88 20,-403.88 20,-403.88 14,-403.88 8,-397.88 8,-391.88 8,-391.88 8,-119.88 8,-119.88 8,-113.88 14,-107.88 20,-107.88"/>
<text xml:space="preserve" text-anchor="middle" x="445.44" y="-389.43" font-family="Times,serif" font-size="11.00" fill="#4a86c8">Section I</text>
</g>
<!-- temporal&#45;optimality -->
<g id="node1" class="node">
<title>temporal&#45;optimality</title>
<polygon fill="#ddc6e6" stroke="#8e44ad" points="81.07,-213.76 27.07,-213.76 27.07,-190 81.07,-190 81.07,-213.76"/>
<text xml:space="preserve" text-anchor="middle" x="54.07" y="-203.28" font-family="Helvetica,sans-Serif" font-size="8.00">temporal</text>
<text xml:space="preserve" text-anchor="middle" x="54.07" y="-194.28" font-family="Helvetica,sans-Serif" font-size="8.00">optimality</text>
</g>
<!-- agent&#45;environment -->
<g id="node2" class="node">
<title>agent&#45;environment</title>
<polygon fill="#bed8ea" stroke="#2980b9" points="92.14,-309.68 16,-309.68 16,-288.08 92.14,-288.08 92.14,-309.68"/>
<text xml:space="preserve" text-anchor="middle" x="54.07" y="-295.78" font-family="Helvetica,sans-Serif" font-size="8.00">agent&#45;environment</text>
</g>
<!-- observation&#45;function -->
<g id="node3" class="node">
<title>observation&#45;function</title>
<polygon fill="#bed8ea" stroke="#2980b9" points="180.96,-265.76 126.96,-265.76 126.96,-242 180.96,-242 180.96,-265.76"/>
<text xml:space="preserve" text-anchor="middle" x="153.96" y="-255.28" font-family="Helvetica,sans-Serif" font-size="8.00">observation</text>
<text xml:space="preserve" text-anchor="middle" x="153.96" y="-246.28" font-family="Helvetica,sans-Serif" font-size="8.00">function</text>
</g>
<!-- agent&#45;environment&#45;&gt;observation&#45;function -->
<g id="edge11" class="edge">
<title>agent&#45;environment&#45;&gt;observation&#45;function</title>
<path fill="none" stroke="#4a86c8" d="M92.58,-292.41C117.32,-292.41 144.87,-292.41 144.87,-292.41 144.87,-292.41 144.87,-272.59 144.87,-272.59"/>
<polygon fill="#4a86c8" stroke="#4a86c8" points="146.62,-272.59 144.87,-267.59 143.12,-272.59 146.62,-272.59"/>
</g>
<!-- action&#45;transition -->
<g id="node4" class="node">
<title>action&#45;transition</title>
<polygon fill="#bed8ea" stroke="#2980b9" points="186.41,-322.68 121.52,-322.68 121.52,-301.08 186.41,-301.08 186.41,-322.68"/>
<text xml:space="preserve" text-anchor="middle" x="153.96" y="-308.78" font-family="Helvetica,sans-Serif" font-size="8.00">action&#45;transition</text>
</g>
<!-- agent&#45;environment&#45;&gt;action&#45;transition -->
<g id="edge32" class="edge">
<title>agent&#45;environment&#45;&gt;action&#45;transition</title>
<path fill="none" stroke="#4a86c8" d="M92.4,-305.38C92.4,-305.38 114.58,-305.38 114.58,-305.38"/>
<polygon fill="#4a86c8" stroke="#4a86c8" points="114.58,-307.13 119.58,-305.38 114.58,-303.63 114.58,-307.13"/>
</g>
<!-- scope&#45;condition -->
<g id="node5" class="node">
<title>scope&#45;condition</title>
<polygon fill="#d8dcdc" stroke="#7f8c8d" points="279.92,-232.68 215.78,-232.68 215.78,-211.08 279.92,-211.08 279.92,-232.68"/>
<text xml:space="preserve" text-anchor="middle" x="247.85" y="-218.78" font-family="Helvetica,sans-Serif" font-size="8.00">scope&#45;condition</text>
</g>
<!-- agent&#45;environment&#45;&gt;scope&#45;condition -->
<g id="edge63" class="edge">
<title>agent&#45;environment&#45;&gt;scope&#45;condition</title>
<path fill="none" stroke="#4a86c8" d="M92.43,-294.58C144.96,-294.58 232.87,-294.58 232.87,-294.58 232.87,-294.58 232.87,-239.44 232.87,-239.44"/>
<polygon fill="#4a86c8" stroke="#4a86c8" points="234.62,-239.44 232.87,-234.44 231.12,-239.44 234.62,-239.44"/>
</g>
<!-- causal&#45;structure -->
<g id="node7" class="node">
<title>causal&#45;structure</title>
<polygon fill="#ddc6e6" stroke="#8e44ad" points="186.78,-374.68 121.14,-374.68 121.14,-353.08 186.78,-353.08 186.78,-374.68"/>
<text xml:space="preserve" text-anchor="middle" x="153.96" y="-360.78" font-family="Helvetica,sans-Serif" font-size="8.00">causal&#45;structure</text>
</g>
<!-- agent&#45;environment&#45;&gt;causal&#45;structure -->
<g id="edge31" class="edge">
<title>agent&#45;environment&#45;&gt;causal&#45;structure</title>
<path fill="none" stroke="#4a86c8" d="M53.87,-309.91C53.87,-328.45 53.87,-363.88 53.87,-363.88 53.87,-363.88 114.4,-363.88 114.4,-363.88"/>
<polygon fill="#4a86c8" stroke="#4a86c8" points="114.4,-365.63 119.4,-363.88 114.4,-362.13 114.4,-365.63"/>
</g>
<!-- chronica -->
<g id="node9" class="node">
<title>chronica</title>
<polygon fill="#bed8ea" stroke="#2980b9" points="274.85,-348.68 220.85,-348.68 220.85,-327.08 274.85,-327.08 274.85,-348.68"/>
<text xml:space="preserve" text-anchor="middle" x="247.85" y="-334.78" font-family="Helvetica,sans-Serif" font-size="8.00">chronica</text>
</g>
<!-- agent&#45;environment&#45;&gt;chronica -->
<g id="edge40" class="edge">
<title>agent&#45;environment&#45;&gt;chronica</title>
<path fill="none" stroke="#4a86c8" d="M92.48,-298.91C149.75,-298.91 250.87,-298.91 250.87,-298.91 250.87,-298.91 250.87,-320.3 250.87,-320.3"/>
<polygon fill="#4a86c8" stroke="#4a86c8" points="249.12,-320.3 250.87,-325.3 252.62,-320.3 249.12,-320.3"/>
</g>
<!-- agent&#45;model -->
<g id="node10" class="node">
<title>agent&#45;model</title>
<polygon fill="#bdd4e3" stroke="#2471a3" points="362.92,-309.68 308.92,-309.68 308.92,-288.08 362.92,-288.08 362.92,-309.68"/>
<text xml:space="preserve" text-anchor="middle" x="335.92" y="-295.78" font-family="Helvetica,sans-Serif" font-size="8.00">agent&#45;model</text>
</g>
<!-- agent&#45;environment&#45;&gt;agent&#45;model -->
<g id="edge33" class="edge">
<title>agent&#45;environment&#45;&gt;agent&#45;model</title>
<path fill="none" stroke="#4a86c8" d="M92.37,-296.75C92.37,-296.75 302.19,-296.75 302.19,-296.75"/>
<polygon fill="#4a86c8" stroke="#4a86c8" points="302.19,-298.5 307.19,-296.75 302.19,-295 302.19,-298.5"/>
</g>
<!-- observation&#45;function&#45;&gt;scope&#45;condition -->
<g id="edge64" class="edge">
<title>observation&#45;function&#45;&gt;scope&#45;condition</title>
<path fill="none" stroke="#4a86c8" d="M169.87,-241.76C169.87,-233.19 169.87,-223.22 169.87,-223.22 169.87,-223.22 209.17,-223.22 209.17,-223.22"/>
<polygon fill="#4a86c8" stroke="#4a86c8" points="209.17,-224.97 214.17,-223.22 209.17,-221.47 209.17,-224.97"/>
</g>
<!-- observation&#45;function&#45;&gt;chronica -->
<g id="edge41" class="edge">
<title>observation&#45;function&#45;&gt;chronica</title>
<path fill="none" stroke="#4a86c8" d="M181.27,-261.82C211.76,-261.82 256.87,-261.82 256.87,-261.82 256.87,-261.82 256.87,-320.14 256.87,-320.14"/>
<polygon fill="#4a86c8" stroke="#4a86c8" points="255.12,-320.14 256.87,-325.14 258.62,-320.14 255.12,-320.14"/>
</g>
<!-- observation&#45;function&#45;&gt;agent&#45;model -->
<g id="edge34" class="edge">
<title>observation&#45;function&#45;&gt;agent&#45;model</title>
<path fill="none" stroke="#4a86c8" d="M162.87,-266.19C162.87,-276.74 162.87,-290.25 162.87,-290.25 162.87,-290.25 301.99,-290.25 301.99,-290.25"/>
<polygon fill="#4a86c8" stroke="#4a86c8" points="301.99,-292 306.99,-290.25 301.99,-288.5 301.99,-292"/>
</g>
<!-- event&#45;driven&#45;dynamics -->
<g id="node14" class="node">
<title>event&#45;driven&#45;dynamics</title>
<polygon fill="#bdd4e3" stroke="#2471a3" points="362.92,-347.76 308.92,-347.76 308.92,-324 362.92,-324 362.92,-347.76"/>
<text xml:space="preserve" text-anchor="middle" x="335.92" y="-337.28" font-family="Helvetica,sans-Serif" font-size="8.00">event&#45;driven</text>
<text xml:space="preserve" text-anchor="middle" x="335.92" y="-328.28" font-family="Helvetica,sans-Serif" font-size="8.00">dynamics</text>
</g>
<!-- observation&#45;function&#45;&gt;event&#45;driven&#45;dynamics -->
<g id="edge61" class="edge">
<title>observation&#45;function&#45;&gt;event&#45;driven&#45;dynamics</title>
<path fill="none" stroke="#4a86c8" d="M181.13,-257.88C222.08,-257.88 294.87,-257.88 294.87,-257.88 294.87,-257.88 294.87,-337.42 294.87,-337.42 294.87,-337.42 302.25,-337.42 302.25,-337.42"/>
<polygon fill="#4a86c8" stroke="#4a86c8" points="302.25,-339.17 307.25,-337.42 302.25,-335.67 302.25,-339.17"/>
</g>
<!-- mismatch&#45;signal -->
<g id="node17" class="node">
<title>mismatch&#45;signal</title>
<polygon fill="#bed8ea" stroke="#2980b9" points="459.06,-171.68 393.42,-171.68 393.42,-150.08 459.06,-150.08 459.06,-171.68"/>
<text xml:space="preserve" text-anchor="middle" x="426.24" y="-157.78" font-family="Helvetica,sans-Serif" font-size="8.00">mismatch&#45;signal</text>
</g>
<!-- observation&#45;function&#45;&gt;mismatch&#45;signal -->
<g id="edge2" class="edge">
<title>observation&#45;function&#45;&gt;mismatch&#45;signal</title>
<path fill="none" stroke="#4a86c8" d="M158.87,-241.65C158.87,-215.65 158.87,-157.28 158.87,-157.28 158.87,-157.28 386.67,-157.28 386.67,-157.28"/>
<polygon fill="#4a86c8" stroke="#4a86c8" points="386.67,-159.03 391.67,-157.28 386.67,-155.53 386.67,-159.03"/>
</g>
<!-- mismatch&#45;decomposition -->
<g id="node18" class="node">
<title>mismatch&#45;decomposition</title>
<polygon fill="#bbdac8" stroke="#1e8449" stroke-width="2" points="554.08,-211.76 494.44,-211.76 494.44,-188 554.08,-188 554.08,-211.76"/>
<polygon fill="none" stroke="#1e8449" stroke-width="2" points="558.08,-215.76 490.44,-215.76 490.44,-184 558.08,-184 558.08,-215.76"/>
<text xml:space="preserve" text-anchor="middle" x="524.25" y="-201.28" font-family="Helvetica,sans-Serif" font-size="8.00">mismatch</text>
<text xml:space="preserve" text-anchor="middle" x="524.25" y="-192.28" font-family="Helvetica,sans-Serif" font-size="8.00">decomposition</text>
</g>
<!-- observation&#45;function&#45;&gt;mismatch&#45;decomposition -->
<g id="edge24" class="edge">
<title>observation&#45;function&#45;&gt;mismatch&#45;decomposition</title>
<path fill="none" stroke="#4a86c8" d="M148.87,-241.56C148.87,-238.66 148.87,-236.41 148.87,-236.41 148.87,-236.41 523.87,-236.41 523.87,-236.41 523.87,-236.41 523.87,-222.95 523.87,-222.95"/>
<polygon fill="#4a86c8" stroke="#4a86c8" points="525.62,-222.95 523.87,-217.95 522.12,-222.95 525.62,-222.95"/>
</g>
<!-- update&#45;gain -->
<g id="node19" class="node">
<title>update&#45;gain</title>
<polygon fill="#f7c9c4" stroke="#e74c3c" points="551.25,-153.68 497.25,-153.68 497.25,-132.08 551.25,-132.08 551.25,-153.68"/>
<text xml:space="preserve" text-anchor="middle" x="524.25" y="-139.78" font-family="Helvetica,sans-Serif" font-size="8.00">update&#45;gain</text>
</g>
<!-- observation&#45;function&#45;&gt;update&#45;gain -->
<g id="edge37" class="edge">
<title>observation&#45;function&#45;&gt;update&#45;gain</title>
<path fill="none" stroke="#4a86c8" d="M137.87,-241.81C137.87,-212.71 137.87,-141.08 137.87,-141.08 137.87,-141.08 490.26,-141.08 490.26,-141.08"/>
<polygon fill="#4a86c8" stroke="#4a86c8" points="490.26,-142.83 495.26,-141.08 490.26,-139.33 490.26,-142.83"/>
</g>
<!-- action&#45;transition&#45;&gt;scope&#45;condition -->
<g id="edge65" class="edge">
<title>action&#45;transition&#45;&gt;scope&#45;condition</title>
<path fill="none" stroke="#4a86c8" d="M186.55,-303.95C210.49,-303.95 238.87,-303.95 238.87,-303.95 238.87,-303.95 238.87,-239.46 238.87,-239.46"/>
<polygon fill="#4a86c8" stroke="#4a86c8" points="240.62,-239.46 238.87,-234.46 237.12,-239.46 240.62,-239.46"/>
</g>
<!-- action&#45;transition&#45;&gt;chronica -->
<g id="edge42" class="edge">
<title>action&#45;transition&#45;&gt;chronica</title>
<path fill="none" stroke="#4a86c8" d="M186.78,-318C212.82,-318 244.87,-318 244.87,-318 244.87,-318 244.87,-320.5 244.87,-320.5"/>
<polygon fill="#4a86c8" stroke="#4a86c8" points="243.12,-320.5 244.87,-325.5 246.62,-320.5 243.12,-320.5"/>
</g>
<!-- action&#45;transition&#45;&gt;event&#45;driven&#45;dynamics -->
<g id="edge62" class="edge">
<title>action&#45;transition&#45;&gt;event&#45;driven&#45;dynamics</title>
<path fill="none" stroke="#4a86c8" d="M186.89,-313.84C237.06,-313.84 326.87,-313.84 326.87,-313.84 326.87,-313.84 326.87,-317.06 326.87,-317.06"/>
<polygon fill="#4a86c8" stroke="#4a86c8" points="325.12,-317.06 326.87,-322.06 328.62,-317.06 325.12,-317.06"/>
</g>
<!-- composition&#45;consistency -->
<g id="node6" class="node">
<title>composition&#45;consistency</title>
<polygon fill="#ddc6e6" stroke="#8e44ad" points="362.92,-219.76 308.92,-219.76 308.92,-196 362.92,-196 362.92,-219.76"/>
<text xml:space="preserve" text-anchor="middle" x="335.92" y="-209.28" font-family="Helvetica,sans-Serif" font-size="8.00">composition</text>
<text xml:space="preserve" text-anchor="middle" x="335.92" y="-200.28" font-family="Helvetica,sans-Serif" font-size="8.00">consistency</text>
</g>
<!-- scope&#45;condition&#45;&gt;composition&#45;consistency -->
<g id="edge22" class="edge">
<title>scope&#45;condition&#45;&gt;composition&#45;consistency</title>
<path fill="none" stroke="#4a86c8" d="M280.39,-215.42C280.39,-215.42 301.91,-215.42 301.91,-215.42"/>
<polygon fill="#4a86c8" stroke="#4a86c8" points="301.91,-217.17 306.91,-215.42 301.91,-213.67 301.91,-217.17"/>
</g>
<!-- pearl&#45;causal&#45;hierarchy -->
<g id="node8" class="node">
<title>pearl&#45;causal&#45;hierarchy</title>
<polygon fill="#bed8ea" stroke="#2980b9" points="362.92,-273.76 308.92,-273.76 308.92,-250 362.92,-250 362.92,-273.76"/>
<text xml:space="preserve" text-anchor="middle" x="335.92" y="-263.28" font-family="Helvetica,sans-Serif" font-size="8.00">pearl&#45;causal</text>
<text xml:space="preserve" text-anchor="middle" x="335.92" y="-254.28" font-family="Helvetica,sans-Serif" font-size="8.00">hierarchy</text>
</g>
<!-- scope&#45;condition&#45;&gt;pearl&#45;causal&#45;hierarchy -->
<g id="edge29" class="edge">
<title>scope&#45;condition&#45;&gt;pearl&#45;causal&#45;hierarchy</title>
<path fill="none" stroke="#4a86c8" d="M262.87,-233.09C262.87,-242.34 262.87,-253.94 262.87,-253.94 262.87,-253.94 302.21,-253.94 302.21,-253.94"/>
<polygon fill="#4a86c8" stroke="#4a86c8" points="302.21,-255.69 307.21,-253.94 302.21,-252.19 302.21,-255.69"/>
</g>
<!-- scope&#45;condition&#45;&gt;mismatch&#45;decomposition -->
<g id="edge26" class="edge">
<title>scope&#45;condition&#45;&gt;mismatch&#45;decomposition</title>
<path fill="none" stroke="#4a86c8" d="M226.87,-232.99C226.87,-233.94 226.87,-234.54 226.87,-234.54 226.87,-234.54 506.87,-234.54 506.87,-234.54 506.87,-234.54 506.87,-222.91 506.87,-222.91"/>
<polygon fill="#4a86c8" stroke="#4a86c8" points="508.62,-222.91 506.87,-217.91 505.12,-222.91 508.62,-222.91"/>
</g>
<!-- causal&#45;structure&#45;&gt;pearl&#45;causal&#45;hierarchy -->
<g id="edge28" class="edge">
<title>causal&#45;structure&#45;&gt;pearl&#45;causal&#45;hierarchy</title>
<path fill="none" stroke="#4a86c8" d="M187.05,-364.48C194.81,-364.48 200.87,-364.48 200.87,-364.48 200.87,-364.48 200.87,-269.76 200.87,-269.76 200.87,-269.76 302.08,-269.76 302.08,-269.76"/>
<polygon fill="#4a86c8" stroke="#4a86c8" points="302.08,-271.51 307.08,-269.76 302.08,-268.01 302.08,-271.51"/>
</g>
<!-- causal&#45;structure&#45;&gt;chronica -->
<g id="edge43" class="edge">
<title>causal&#45;structure&#45;&gt;chronica</title>
<path fill="none" stroke="#4a86c8" d="M187.03,-367.88C210.87,-367.88 238.87,-367.88 238.87,-367.88 238.87,-367.88 238.87,-355.56 238.87,-355.56"/>
<polygon fill="#4a86c8" stroke="#4a86c8" points="240.62,-355.56 238.87,-350.56 237.12,-355.56 240.62,-355.56"/>
</g>
<!-- causal&#45;structure&#45;&gt;event&#45;driven&#45;dynamics -->
<g id="edge60" class="edge">
<title>causal&#45;structure&#45;&gt;event&#45;driven&#45;dynamics</title>
<path fill="none" stroke="#4a86c8" d="M186.9,-371.28C239.32,-371.28 335.87,-371.28 335.87,-371.28 335.87,-371.28 335.87,-354.38 335.87,-354.38"/>
<polygon fill="#4a86c8" stroke="#4a86c8" points="337.62,-354.38 335.87,-349.38 334.12,-354.38 337.62,-354.38"/>
</g>
<!-- causal&#45;information&#45;yield -->
<g id="node20" class="node">
<title>causal&#45;information&#45;yield</title>
<polygon fill="#bed8ea" stroke="#2980b9" points="665.84,-267.76 591.95,-267.76 591.95,-244 665.84,-244 665.84,-267.76"/>
<text xml:space="preserve" text-anchor="middle" x="628.89" y="-257.28" font-family="Helvetica,sans-Serif" font-size="8.00">causal&#45;information</text>
<text xml:space="preserve" text-anchor="middle" x="628.89" y="-248.28" font-family="Helvetica,sans-Serif" font-size="8.00">yield</text>
</g>
<!-- pearl&#45;causal&#45;hierarchy&#45;&gt;causal&#45;information&#45;yield -->
<g id="edge19" class="edge">
<title>pearl&#45;causal&#45;hierarchy&#45;&gt;causal&#45;information&#45;yield</title>
<path fill="none" stroke="#4a86c8" d="M363.22,-260.67C363.22,-260.67 585.02,-260.67 585.02,-260.67"/>
<polygon fill="#4a86c8" stroke="#4a86c8" points="585.02,-262.42 590.02,-260.67 585.02,-258.92 585.02,-262.42"/>
</g>
<!-- chronica&#45;&gt;agent&#45;model -->
<g id="edge35" class="edge">
<title>chronica&#45;&gt;agent&#45;model</title>
<path fill="none" stroke="#4a86c8" d="M268.87,-326.66C268.87,-317.77 268.87,-306.81 268.87,-306.81 268.87,-306.81 302.13,-306.81 302.13,-306.81"/>
<polygon fill="#4a86c8" stroke="#4a86c8" points="302.13,-308.56 307.13,-306.81 302.13,-305.06 302.13,-308.56"/>
</g>
<!-- agent&#45;identity -->
<g id="node29" class="node">
<title>agent&#45;identity</title>
<polygon fill="#f2e6b6" stroke="#d4ac0d" points="657.22,-357.68 600.57,-357.68 600.57,-336.08 657.22,-336.08 657.22,-357.68"/>
<text xml:space="preserve" text-anchor="middle" x="628.89" y="-343.78" font-family="Helvetica,sans-Serif" font-size="8.00">agent&#45;identity</text>
</g>
<!-- chronica&#45;&gt;agent&#45;identity -->
<g id="edge9" class="edge">
<title>chronica&#45;&gt;agent&#45;identity</title>
<path fill="none" stroke="#4a86c8" d="M256.87,-348.94C256.87,-354.91 256.87,-361.08 256.87,-361.08 256.87,-361.08 628.87,-361.08 628.87,-361.08 628.87,-361.08 628.87,-360.78 628.87,-360.78"/>
<polygon fill="#4a86c8" stroke="#4a86c8" points="630.62,-364.58 628.87,-359.58 627.12,-364.58 630.62,-364.58"/>
</g>
<!-- information&#45;bottleneck -->
<g id="node11" class="node">
<title>information&#45;bottleneck</title>
<polygon fill="#bdd4e3" stroke="#2471a3" points="453.24,-289.76 399.24,-289.76 399.24,-266 453.24,-266 453.24,-289.76"/>
<text xml:space="preserve" text-anchor="middle" x="426.24" y="-279.28" font-family="Helvetica,sans-Serif" font-size="8.00">information</text>
<text xml:space="preserve" text-anchor="middle" x="426.24" y="-270.28" font-family="Helvetica,sans-Serif" font-size="8.00">bottleneck</text>
</g>
<!-- agent&#45;model&#45;&gt;information&#45;bottleneck -->
<g id="edge27" class="edge">
<title>agent&#45;model&#45;&gt;information&#45;bottleneck</title>
<path fill="none" stroke="#4a86c8" d="M344.87,-287.89C344.87,-285.32 344.87,-283.31 344.87,-283.31 344.87,-283.31 392.63,-283.31 392.63,-283.31"/>
<polygon fill="#4a86c8" stroke="#4a86c8" points="392.63,-285.06 397.63,-283.31 392.63,-281.56 392.63,-285.06"/>
</g>
<!-- model&#45;sufficiency -->
<g id="node12" class="node">
<title>model&#45;sufficiency</title>
<polygon fill="#bed8ea" stroke="#2980b9" points="558.95,-296.68 489.56,-296.68 489.56,-275.08 558.95,-275.08 558.95,-296.68"/>
<text xml:space="preserve" text-anchor="middle" x="524.25" y="-282.78" font-family="Helvetica,sans-Serif" font-size="8.00">model&#45;sufficiency</text>
</g>
<!-- agent&#45;model&#45;&gt;model&#45;sufficiency -->
<g id="edge58" class="edge">
<title>agent&#45;model&#45;&gt;model&#45;sufficiency</title>
<path fill="none" stroke="#4a86c8" d="M363.25,-300.31C415.38,-300.31 523.87,-300.31 523.87,-300.31 523.87,-300.31 523.87,-299.98 523.87,-299.98"/>
<polygon fill="#4a86c8" stroke="#4a86c8" points="525.62,-303.48 523.87,-298.48 522.12,-303.48 525.62,-303.48"/>
</g>
<!-- recursive&#45;update -->
<g id="node15" class="node">
<title>recursive&#45;update</title>
<polygon fill="#bee6cf" stroke="#27ae60" points="460.56,-341.68 391.92,-341.68 391.92,-320.08 460.56,-320.08 460.56,-341.68"/>
<text xml:space="preserve" text-anchor="middle" x="426.24" y="-327.78" font-family="Helvetica,sans-Serif" font-size="8.00">recursive&#45;update</text>
</g>
<!-- agent&#45;model&#45;&gt;recursive&#45;update -->
<g id="edge49" class="edge">
<title>agent&#45;model&#45;&gt;recursive&#45;update</title>
<path fill="none" stroke="#4a86c8" d="M363.4,-303.94C389.85,-303.94 425.87,-303.94 425.87,-303.94 425.87,-303.94 425.87,-313.1 425.87,-313.1"/>
<polygon fill="#4a86c8" stroke="#4a86c8" points="424.12,-313.1 425.87,-318.1 427.62,-313.1 424.12,-313.1"/>
</g>
<!-- action&#45;selection -->
<g id="node16" class="node">
<title>action&#45;selection</title>
<polygon fill="#bee6cf" stroke="#27ae60" points="555.95,-341.68 492.56,-341.68 492.56,-320.08 555.95,-320.08 555.95,-341.68"/>
<text xml:space="preserve" text-anchor="middle" x="524.25" y="-327.78" font-family="Helvetica,sans-Serif" font-size="8.00">action&#45;selection</text>
</g>
<!-- agent&#45;model&#45;&gt;action&#45;selection -->
<g id="edge56" class="edge">
<title>agent&#45;model&#45;&gt;action&#45;selection</title>
<path fill="none" stroke="#4a86c8" d="M363.32,-302.13C412.09,-302.13 508.87,-302.13 508.87,-302.13 508.87,-302.13 508.87,-313.33 508.87,-313.33"/>
<polygon fill="#4a86c8" stroke="#4a86c8" points="507.12,-313.33 508.87,-318.33 510.62,-313.33 507.12,-313.33"/>
</g>
<!-- agent&#45;model&#45;&gt;mismatch&#45;signal -->
<g id="edge1" class="edge">
<title>agent&#45;model&#45;&gt;mismatch&#45;signal</title>
<path fill="none" stroke="#4a86c8" d="M363.25,-298.5C372.19,-298.5 379.87,-298.5 379.87,-298.5 379.87,-298.5 379.87,-164.48 379.87,-164.48 379.87,-164.48 386.52,-164.48 386.52,-164.48"/>
<polygon fill="#4a86c8" stroke="#4a86c8" points="386.52,-166.23 391.52,-164.48 386.52,-162.73 386.52,-166.23"/>
</g>
<!-- agent&#45;model&#45;&gt;mismatch&#45;decomposition -->
<g id="edge25" class="edge">
<title>agent&#45;model&#45;&gt;mismatch&#45;decomposition</title>
<path fill="none" stroke="#4a86c8" d="M326.87,-287.75C326.87,-283 326.87,-278.53 326.87,-278.53 326.87,-278.53 374.87,-278.53 374.87,-278.53 374.87,-278.53 374.87,-205.88 374.87,-205.88 374.87,-205.88 483.09,-205.88 483.09,-205.88"/>
<polygon fill="#4a86c8" stroke="#4a86c8" points="483.09,-207.63 488.09,-205.88 483.09,-204.13 483.09,-207.63"/>
</g>
<!-- information&#45;bottleneck&#45;&gt;model&#45;sufficiency -->
<g id="edge59" class="edge">
<title>information&#45;bottleneck&#45;&gt;model&#45;sufficiency</title>
<path fill="none" stroke="#4a86c8" d="M453.54,-282.42C453.54,-282.42 482.87,-282.42 482.87,-282.42"/>
<polygon fill="#4a86c8" stroke="#4a86c8" points="482.87,-284.17 487.87,-282.42 482.87,-280.67 482.87,-284.17"/>
</g>
<!-- model&#45;class&#45;fitness -->
<g id="node13" class="node">
<title>model&#45;class&#45;fitness</title>
<polygon fill="#bed8ea" stroke="#2980b9" points="655.89,-305.76 601.89,-305.76 601.89,-282 655.89,-282 655.89,-305.76"/>
<text xml:space="preserve" text-anchor="middle" x="628.89" y="-295.28" font-family="Helvetica,sans-Serif" font-size="8.00">model&#45;class</text>
<text xml:space="preserve" text-anchor="middle" x="628.89" y="-286.28" font-family="Helvetica,sans-Serif" font-size="8.00">fitness</text>
</g>
<!-- model&#45;sufficiency&#45;&gt;model&#45;class&#45;fitness -->
<g id="edge30" class="edge">
<title>model&#45;sufficiency&#45;&gt;model&#45;class&#45;fitness</title>
<path fill="none" stroke="#4a86c8" d="M559.39,-289.34C559.39,-289.34 595.11,-289.34 595.11,-289.34"/>
<polygon fill="#4a86c8" stroke="#4a86c8" points="595.11,-291.09 600.11,-289.34 595.11,-287.59 595.11,-291.09"/>
</g>
<!-- structural&#45;adaptation&#45;necessity -->
<g id="node27" class="node">
<title>structural&#45;adaptation&#45;necessity</title>
<polygon fill="#bbdac8" stroke="#1e8449" stroke-width="2" points="765.03,-266.26 711.03,-266.26 711.03,-233.5 765.03,-233.5 765.03,-266.26"/>
<polygon fill="none" stroke="#1e8449" stroke-width="2" points="769.03,-270.26 707.03,-270.26 707.03,-229.5 769.03,-229.5 769.03,-270.26"/>
<text xml:space="preserve" text-anchor="middle" x="738.03" y="-255.78" font-family="Helvetica,sans-Serif" font-size="8.00">structural</text>
<text xml:space="preserve" text-anchor="middle" x="738.03" y="-246.78" font-family="Helvetica,sans-Serif" font-size="8.00">adaptation</text>
<text xml:space="preserve" text-anchor="middle" x="738.03" y="-237.78" font-family="Helvetica,sans-Serif" font-size="8.00">necessity</text>
</g>
<!-- model&#45;sufficiency&#45;&gt;structural&#45;adaptation&#45;necessity -->
<g id="edge3" class="edge">
<title>model&#45;sufficiency&#45;&gt;structural&#45;adaptation&#45;necessity</title>
<path fill="none" stroke="#4a86c8" d="M540.87,-274.81C540.87,-261.27 540.87,-240.14 540.87,-240.14 540.87,-240.14 699.84,-240.14 699.84,-240.14"/>
<polygon fill="#4a86c8" stroke="#4a86c8" points="699.84,-241.89 704.84,-240.14 699.84,-238.39 699.84,-241.89"/>
</g>
<!-- model&#45;sufficiency&#45;&gt;agent&#45;identity -->
<g id="edge10" class="edge">
<title>model&#45;sufficiency&#45;&gt;agent&#45;identity</title>
<path fill="none" stroke="#4a86c8" d="M539.87,-297.07C539.87,-305.61 539.87,-315.92 539.87,-315.92 539.87,-315.92 628.87,-315.92 628.87,-315.92 628.87,-315.92 628.87,-329.19 628.87,-329.19"/>
<polygon fill="#4a86c8" stroke="#4a86c8" points="627.12,-329.19 628.87,-334.19 630.62,-329.19 627.12,-329.19"/>
</g>
<!-- model&#45;class&#45;fitness&#45;&gt;structural&#45;adaptation&#45;necessity -->
<g id="edge4" class="edge">
<title>model&#45;class&#45;fitness&#45;&gt;structural&#45;adaptation&#45;necessity</title>
<path fill="none" stroke="#4a86c8" d="M656.18,-300.28C671.22,-300.28 686.87,-300.28 686.87,-300.28 686.87,-300.28 686.87,-255.88 686.87,-255.88 686.87,-255.88 699.7,-255.88 699.7,-255.88"/>
<polygon fill="#4a86c8" stroke="#4a86c8" points="699.7,-257.63 704.7,-255.88 699.7,-254.13 699.7,-257.63"/>
</g>
<!-- event&#45;driven&#45;dynamics&#45;&gt;recursive&#45;update -->
<g id="edge50" class="edge">
<title>event&#45;driven&#45;dynamics&#45;&gt;recursive&#45;update</title>
<path fill="none" stroke="#4a86c8" d="M363.02,-337.26C363.02,-337.26 384.94,-337.26 384.94,-337.26"/>
<polygon fill="#4a86c8" stroke="#4a86c8" points="384.94,-339.01 389.94,-337.26 384.94,-335.51 384.94,-339.01"/>
</g>
<!-- adaptive&#45;tempo -->
<g id="node21" class="node">
<title>adaptive&#45;tempo</title>
<polygon fill="#bed8ea" stroke="#2980b9" points="660.97,-197.68 596.82,-197.68 596.82,-176.08 660.97,-176.08 660.97,-197.68"/>
<text xml:space="preserve" text-anchor="middle" x="628.89" y="-183.78" font-family="Helvetica,sans-Serif" font-size="8.00">adaptive&#45;tempo</text>
</g>
<!-- event&#45;driven&#45;dynamics&#45;&gt;adaptive&#45;tempo -->
<g id="edge45" class="edge">
<title>event&#45;driven&#45;dynamics&#45;&gt;adaptive&#45;tempo</title>
<path fill="none" stroke="#4a86c8" d="M363.23,-332.84C374.89,-332.84 385.87,-332.84 385.87,-332.84 385.87,-332.84 385.87,-181.36 385.87,-181.36 385.87,-181.36 589.86,-181.36 589.86,-181.36"/>
<polygon fill="#4a86c8" stroke="#4a86c8" points="589.86,-183.11 594.86,-181.36 589.86,-179.61 589.86,-183.11"/>
</g>
<!-- deliberation&#45;cost -->
<g id="node23" class="node">
<title>deliberation&#45;cost</title>
<polygon fill="#bee6cf" stroke="#27ae60" points="771.61,-305.68 704.46,-305.68 704.46,-284.08 771.61,-284.08 771.61,-305.68"/>
<text xml:space="preserve" text-anchor="middle" x="738.03" y="-291.78" font-family="Helvetica,sans-Serif" font-size="8.00">deliberation&#45;cost</text>
</g>
<!-- event&#45;driven&#45;dynamics&#45;&gt;deliberation&#45;cost -->
<g id="edge18" class="edge">
<title>event&#45;driven&#45;dynamics&#45;&gt;deliberation&#45;cost</title>
<path fill="none" stroke="#4a86c8" d="M344.87,-323.54C344.87,-317.6 344.87,-311.76 344.87,-311.76 344.87,-311.76 726.87,-311.76 726.87,-311.76 726.87,-311.76 726.87,-311.19 726.87,-311.19"/>
<polygon fill="#4a86c8" stroke="#4a86c8" points="728.62,-312.56 726.87,-307.56 725.12,-312.56 728.62,-312.56"/>
</g>
<!-- recursive&#45;update&#45;&gt;action&#45;selection -->
<g id="edge57" class="edge">
<title>recursive&#45;update&#45;&gt;action&#45;selection</title>
<path fill="none" stroke="#4a86c8" d="M460.8,-330.88C460.8,-330.88 485.79,-330.88 485.79,-330.88"/>
<polygon fill="#4a86c8" stroke="#4a86c8" points="485.79,-332.63 490.79,-330.88 485.79,-329.13 485.79,-332.63"/>
</g>
<!-- action&#45;selection&#45;&gt;causal&#45;information&#45;yield -->
<g id="edge20" class="edge">
<title>action&#45;selection&#45;&gt;causal&#45;information&#45;yield</title>
<path fill="none" stroke="#4a86c8" d="M556.29,-325.41C575.36,-325.41 595.87,-325.41 595.87,-325.41 595.87,-325.41 595.87,-274.51 595.87,-274.51"/>
<polygon fill="#4a86c8" stroke="#4a86c8" points="597.62,-274.51 595.87,-269.51 594.12,-274.51 597.62,-274.51"/>
</g>
<!-- action&#45;selection&#45;&gt;deliberation&#45;cost -->
<g id="edge15" class="edge">
<title>action&#45;selection&#45;&gt;deliberation&#45;cost</title>
<path fill="none" stroke="#4a86c8" d="M556.44,-330.75C618.54,-330.75 748.87,-330.75 748.87,-330.75 748.87,-330.75 748.87,-312.35 748.87,-312.35"/>
<polygon fill="#4a86c8" stroke="#4a86c8" points="750.62,-312.35 748.87,-307.35 747.12,-312.35 750.62,-312.35"/>
</g>
<!-- mismatch&#45;signal&#45;&gt;mismatch&#45;decomposition -->
<g id="edge23" class="edge">
<title>mismatch&#45;signal&#45;&gt;mismatch&#45;decomposition</title>
<path fill="none" stroke="#4a86c8" d="M459.44,-170.36C482.04,-170.36 507.87,-170.36 507.87,-170.36 507.87,-170.36 507.87,-176.54 507.87,-176.54"/>
<polygon fill="#4a86c8" stroke="#4a86c8" points="506.12,-176.54 507.87,-181.54 509.62,-176.54 506.12,-176.54"/>
</g>
<!-- mismatch&#45;signal&#45;&gt;update&#45;gain -->
<g id="edge36" class="edge">
<title>mismatch&#45;signal&#45;&gt;update&#45;gain</title>
<path fill="none" stroke="#4a86c8" d="M459.42,-156.35C486,-156.35 518.87,-156.35 518.87,-156.35 518.87,-156.35 518.87,-156.11 518.87,-156.11"/>
<polygon fill="#4a86c8" stroke="#4a86c8" points="520.62,-160.51 518.87,-155.51 517.12,-160.51 520.62,-160.51"/>
</g>
<!-- mismatch&#45;signal&#45;&gt;causal&#45;information&#45;yield -->
<g id="edge21" class="edge">
<title>mismatch&#45;signal&#45;&gt;causal&#45;information&#45;yield</title>
<path fill="none" stroke="#4a86c8" d="M425.87,-172.09C425.87,-197.11 425.87,-255.33 425.87,-255.33 425.87,-255.33 585.14,-255.33 585.14,-255.33"/>
<polygon fill="#4a86c8" stroke="#4a86c8" points="585.14,-257.08 590.14,-255.33 585.14,-253.58 585.14,-257.08"/>
</g>
<!-- mismatch&#45;dynamics -->
<g id="node22" class="node">
<title>mismatch&#45;dynamics</title>
<polygon fill="#f7d8bc" stroke="#e67e22" points="777.23,-199.68 698.84,-199.68 698.84,-178.08 777.23,-178.08 777.23,-199.68"/>
<text xml:space="preserve" text-anchor="middle" x="738.03" y="-185.78" font-family="Helvetica,sans-Serif" font-size="8.00">mismatch&#45;dynamics</text>
</g>
<!-- mismatch&#45;signal&#45;&gt;mismatch&#45;dynamics -->
<g id="edge8" class="edge">
<title>mismatch&#45;signal&#45;&gt;mismatch&#45;dynamics</title>
<path fill="none" stroke="#4a86c8" d="M459.45,-166.4C537.46,-166.4 725.87,-166.4 725.87,-166.4 725.87,-166.4 725.87,-171.13 725.87,-171.13"/>
<polygon fill="#4a86c8" stroke="#4a86c8" points="724.12,-171.13 725.87,-176.13 727.62,-171.13 724.12,-171.13"/>
</g>
<!-- gain&#45;sector&#45;bridge -->
<g id="node24" class="node">
<title>gain&#45;sector&#45;bridge</title>
<polygon fill="#bee6cf" stroke="#27ae60" stroke-width="2" points="665.84,-157.68 591.95,-157.68 591.95,-136.08 665.84,-136.08 665.84,-157.68"/>
<polygon fill="none" stroke="#27ae60" stroke-width="2" points="669.84,-161.68 587.95,-161.68 587.95,-132.08 669.84,-132.08 669.84,-161.68"/>
<text xml:space="preserve" text-anchor="middle" x="628.89" y="-143.78" font-family="Helvetica,sans-Serif" font-size="8.00">gain&#45;sector&#45;bridge</text>
</g>
<!-- mismatch&#45;signal&#45;&gt;gain&#45;sector&#45;bridge -->
<g id="edge53" class="edge">
<title>mismatch&#45;signal&#45;&gt;gain&#45;sector&#45;bridge</title>
<path fill="none" stroke="#4a86c8" d="M459.25,-159.01C459.25,-159.01 580.6,-159.01 580.6,-159.01"/>
<polygon fill="#4a86c8" stroke="#4a86c8" points="580.6,-160.76 585.6,-159.01 580.6,-157.26 580.6,-160.76"/>
</g>
<!-- sector&#45;condition&#45;stability -->
<g id="node25" class="node">
<title>sector&#45;condition&#45;stability</title>
<polygon fill="#bbdac8" stroke="#1e8449" stroke-width="2" points="770.48,-159.76 705.59,-159.76 705.59,-136 770.48,-136 770.48,-159.76"/>
<polygon fill="none" stroke="#1e8449" stroke-width="2" points="774.48,-163.76 701.59,-163.76 701.59,-132 774.48,-132 774.48,-163.76"/>
<text xml:space="preserve" text-anchor="middle" x="738.03" y="-149.28" font-family="Helvetica,sans-Serif" font-size="8.00">sector&#45;condition</text>
<text xml:space="preserve" text-anchor="middle" x="738.03" y="-140.28" font-family="Helvetica,sans-Serif" font-size="8.00">stability</text>
</g>
<!-- mismatch&#45;signal&#45;&gt;sector&#45;condition&#45;stability -->
<g id="edge47" class="edge">
<title>mismatch&#45;signal&#45;&gt;sector&#45;condition&#45;stability</title>
<path fill="none" stroke="#4a86c8" d="M459.35,-165.08C541.84,-165.08 749.87,-165.08 749.87,-165.08 749.87,-165.08 749.87,-165.04 749.87,-165.04"/>
<polygon fill="#4a86c8" stroke="#4a86c8" points="751.62,-171.17 749.87,-166.17 748.12,-171.17 751.62,-171.17"/>
</g>
<!-- persistence&#45;condition -->
<g id="node26" class="node">
<title>persistence&#45;condition</title>
<polygon fill="#bbdac8" stroke="#1e8449" stroke-width="2" points="867.55,-159.76 813.55,-159.76 813.55,-136 867.55,-136 867.55,-159.76"/>
<polygon fill="none" stroke="#1e8449" stroke-width="2" points="871.55,-163.76 809.55,-163.76 809.55,-132 871.55,-132 871.55,-163.76"/>
<text xml:space="preserve" text-anchor="middle" x="840.55" y="-149.28" font-family="Helvetica,sans-Serif" font-size="8.00">persistence</text>
<text xml:space="preserve" text-anchor="middle" x="840.55" y="-140.28" font-family="Helvetica,sans-Serif" font-size="8.00">condition</text>
</g>
<!-- mismatch&#45;signal&#45;&gt;persistence&#45;condition -->
<g id="edge13" class="edge">
<title>mismatch&#45;signal&#45;&gt;persistence&#45;condition</title>
<path fill="none" stroke="#4a86c8" d="M425.87,-149.99C425.87,-136.67 425.87,-115.88 425.87,-115.88 425.87,-115.88 840.87,-115.88 840.87,-115.88 840.87,-115.88 840.87,-124.62 840.87,-124.62"/>
<polygon fill="#4a86c8" stroke="#4a86c8" points="839.12,-124.62 840.87,-129.62 842.62,-124.62 839.12,-124.62"/>
</g>
<!-- mismatch&#45;decomposition&#45;&gt;structural&#45;adaptation&#45;necessity -->
<g id="edge5" class="edge">
<title>mismatch&#45;decomposition&#45;&gt;structural&#45;adaptation&#45;necessity</title>
<path fill="none" stroke="#4a86c8" d="M558.8,-209.92C616.89,-209.92 727.87,-209.92 727.87,-209.92 727.87,-209.92 727.87,-222.45 727.87,-222.45"/>
<polygon fill="#4a86c8" stroke="#4a86c8" points="726.12,-222.45 727.87,-227.45 729.62,-222.45 726.12,-222.45"/>
</g>
<!-- update&#45;gain&#45;&gt;adaptive&#45;tempo -->
<g id="edge44" class="edge">
<title>update&#45;gain&#45;&gt;adaptive&#45;tempo</title>
<path fill="none" stroke="#4a86c8" d="M529.87,-153.83C529.87,-164.37 529.87,-178.72 529.87,-178.72 529.87,-178.72 589.96,-178.72 589.96,-178.72"/>
<polygon fill="#4a86c8" stroke="#4a86c8" points="589.96,-180.47 594.96,-178.72 589.96,-176.97 589.96,-180.47"/>
</g>
<!-- update&#45;gain&#45;&gt;deliberation&#45;cost -->
<g id="edge16" class="edge">
<title>update&#45;gain&#45;&gt;deliberation&#45;cost</title>
<path fill="none" stroke="#4a86c8" d="M540.87,-154.14C540.87,-160.71 540.87,-167.72 540.87,-167.72 540.87,-167.72 681.87,-167.72 681.87,-167.72 681.87,-167.72 681.87,-289.48 681.87,-289.48 681.87,-289.48 697.55,-289.48 697.55,-289.48"/>
<polygon fill="#4a86c8" stroke="#4a86c8" points="697.55,-291.23 702.55,-289.48 697.55,-287.73 697.55,-291.23"/>
</g>
<!-- update&#45;gain&#45;&gt;gain&#45;sector&#45;bridge -->
<g id="edge52" class="edge">
<title>update&#45;gain&#45;&gt;gain&#45;sector&#45;bridge</title>
<path fill="none" stroke="#4a86c8" d="M551.75,-139.28C551.75,-139.28 580.48,-139.28 580.48,-139.28"/>
<polygon fill="#4a86c8" stroke="#4a86c8" points="580.48,-141.03 585.48,-139.28 580.48,-137.53 580.48,-141.03"/>
</g>
<!-- update&#45;gain&#45;&gt;structural&#45;adaptation&#45;necessity -->
<g id="edge6" class="edge">
<title>update&#45;gain&#45;&gt;structural&#45;adaptation&#45;necessity</title>
<path fill="none" stroke="#4a86c8" d="M551.67,-146.48C563.15,-146.48 573.87,-146.48 573.87,-146.48 573.87,-146.48 573.87,-238.27 573.87,-238.27 573.87,-238.27 699.87,-238.27 699.87,-238.27"/>
<polygon fill="#4a86c8" stroke="#4a86c8" points="699.87,-240.02 704.87,-238.27 699.87,-236.52 699.87,-240.02"/>
</g>
<!-- adaptive&#45;tempo&#45;&gt;mismatch&#45;dynamics -->
<g id="edge7" class="edge">
<title>adaptive&#45;tempo&#45;&gt;mismatch&#45;dynamics</title>
<path fill="none" stroke="#4a86c8" d="M661.35,-187.88C661.35,-187.88 692.06,-187.88 692.06,-187.88"/>
<polygon fill="#4a86c8" stroke="#4a86c8" points="692.06,-189.63 697.06,-187.88 692.06,-186.13 692.06,-189.63"/>
</g>
<!-- adaptive&#45;tempo&#45;&gt;deliberation&#45;cost -->
<g id="edge17" class="edge">
<title>adaptive&#45;tempo&#45;&gt;deliberation&#45;cost</title>
<path fill="none" stroke="#4a86c8" d="M661.26,-192.78C669.4,-192.78 675.87,-192.78 675.87,-192.78 675.87,-192.78 675.87,-294.88 675.87,-294.88 675.87,-294.88 697.53,-294.88 697.53,-294.88"/>
<polygon fill="#4a86c8" stroke="#4a86c8" points="697.53,-296.63 702.53,-294.88 697.53,-293.13 697.53,-296.63"/>
</g>
<!-- adaptive&#45;tempo&#45;&gt;sector&#45;condition&#45;stability -->
<g id="edge46" class="edge">
<title>adaptive&#45;tempo&#45;&gt;sector&#45;condition&#45;stability</title>
<path fill="none" stroke="#4a86c8" d="M661.26,-182.98C677.13,-182.98 692.87,-182.98 692.87,-182.98 692.87,-182.98 692.87,-146.88 692.87,-146.88 692.87,-146.88 694.22,-146.88 694.22,-146.88"/>
<polygon fill="#4a86c8" stroke="#4a86c8" points="694.22,-148.63 699.22,-146.88 694.22,-145.13 694.22,-148.63"/>
</g>
<!-- adaptive&#45;tempo&#45;&gt;persistence&#45;condition -->
<g id="edge12" class="edge">
<title>adaptive&#45;tempo&#45;&gt;persistence&#45;condition</title>
<path fill="none" stroke="#4a86c8" d="M628.87,-175.89C628.87,-172.22 628.87,-169.04 628.87,-169.04 628.87,-169.04 840.87,-169.04 840.87,-169.04 840.87,-169.04 840.87,-168.59 840.87,-168.59"/>
<polygon fill="#4a86c8" stroke="#4a86c8" points="842.62,-171.07 840.87,-166.07 839.12,-171.07 842.62,-171.07"/>
</g>
<!-- temporal&#45;nesting -->
<g id="node28" class="node">
<title>temporal&#45;nesting</title>
<polygon fill="#bee6cf" stroke="#27ae60" points="874.87,-225.68 806.23,-225.68 806.23,-204.08 874.87,-204.08 874.87,-225.68"/>
<text xml:space="preserve" text-anchor="middle" x="840.55" y="-211.78" font-family="Helvetica,sans-Serif" font-size="8.00">temporal&#45;nesting</text>
</g>
<!-- adaptive&#45;tempo&#45;&gt;temporal&#45;nesting -->
<g id="edge38" class="edge">
<title>adaptive&#45;tempo&#45;&gt;temporal&#45;nesting</title>
<path fill="none" stroke="#4a86c8" d="M628.87,-197.88C628.87,-202.58 628.87,-207 628.87,-207 628.87,-207 799.56,-207 799.56,-207"/>
<polygon fill="#4a86c8" stroke="#4a86c8" points="799.56,-208.75 804.56,-207 799.56,-205.25 799.56,-208.75"/>
</g>
<!-- sector&#45;condition&#45;stability&#45;&gt;persistence&#45;condition -->
<g id="edge14" class="edge">
<title>sector&#45;condition&#45;stability&#45;&gt;persistence&#45;condition</title>
<path fill="none" stroke="#4a86c8" d="M775.34,-147.88C775.34,-147.88 802.34,-147.88 802.34,-147.88"/>
<polygon fill="#4a86c8" stroke="#4a86c8" points="802.34,-149.63 807.34,-147.88 802.34,-146.13 802.34,-149.63"/>
</g>
<!-- structural&#45;adaptation&#45;necessity&#45;&gt;temporal&#45;nesting -->
<g id="edge39" class="edge">
<title>structural&#45;adaptation&#45;necessity&#45;&gt;temporal&#45;nesting</title>
<path fill="none" stroke="#4a86c8" d="M747.87,-228.76C747.87,-220.45 747.87,-212.84 747.87,-212.84 747.87,-212.84 799.26,-212.84 799.26,-212.84"/>
<polygon fill="#4a86c8" stroke="#4a86c8" points="799.26,-214.59 804.26,-212.84 799.26,-211.09 799.26,-214.59"/>
</g>
<!-- recursive&#45;update&#45;derivation -->
<g id="node30" class="node">
<title>recursive&#45;update&#45;derivation</title>
<polygon fill="none" stroke="#cccccc" stroke-dasharray="5,2" points="88.39,-23.76 19.75,-23.76 19.75,0 88.39,0 88.39,-23.76"/>
<text xml:space="preserve" text-anchor="middle" x="54.07" y="-13.28" font-family="Helvetica,sans-Serif" font-size="8.00" fill="#999999">recursive&#45;update</text>
<text xml:space="preserve" text-anchor="middle" x="54.07" y="-4.28" font-family="Helvetica,sans-Serif" font-size="8.00" fill="#999999">derivation</text>
</g>
<!-- recursive&#45;update&#45;derivation&#45;&gt;recursive&#45;update -->
<g id="edge51" class="edge">
<title>recursive&#45;update&#45;derivation&#45;&gt;recursive&#45;update</title>
<path fill="none" stroke="#cccccc" stroke-dasharray="5,2" d="M88.66,-11.88C170.44,-11.88 368.87,-11.88 368.87,-11.88 368.87,-11.88 368.87,-328.42 368.87,-328.42 368.87,-328.42 385.03,-328.42 385.03,-328.42"/>
<polygon fill="#cccccc" stroke="#cccccc" points="385.03,-330.17 390.03,-328.42 385.03,-326.67 385.03,-330.17"/>
</g>
<!-- gain&#45;sector&#45;derivation -->
<g id="node31" class="node">
<title>gain&#45;sector&#45;derivation</title>
<polygon fill="none" stroke="#cccccc" stroke-dasharray="5,2" points="81.07,-61.76 27.07,-61.76 27.07,-38 81.07,-38 81.07,-61.76"/>
<text xml:space="preserve" text-anchor="middle" x="54.07" y="-51.28" font-family="Helvetica,sans-Serif" font-size="8.00" fill="#999999">gain&#45;sector</text>
<text xml:space="preserve" text-anchor="middle" x="54.07" y="-42.28" font-family="Helvetica,sans-Serif" font-size="8.00" fill="#999999">derivation</text>
</g>
<!-- gain&#45;sector&#45;derivation&#45;&gt;gain&#45;sector&#45;bridge -->
<g id="edge55" class="edge">
<title>gain&#45;sector&#45;derivation&#45;&gt;gain&#45;sector&#45;bridge</title>
<path fill="none" stroke="#cccccc" stroke-dasharray="5,2" d="M81.29,-49.88C197.09,-49.88 642.87,-49.88 642.87,-49.88 642.87,-49.88 642.87,-124.78 642.87,-124.78"/>
<polygon fill="#cccccc" stroke="#cccccc" points="641.12,-124.78 642.87,-129.78 644.62,-124.78 641.12,-124.78"/>
</g>
<!-- sector&#45;condition&#45;derivation -->
<g id="node32" class="node">
<title>sector&#45;condition&#45;derivation</title>
<polygon fill="none" stroke="#cccccc" stroke-dasharray="5,2" points="86.52,-99.76 21.63,-99.76 21.63,-76 86.52,-76 86.52,-99.76"/>
<text xml:space="preserve" text-anchor="middle" x="54.07" y="-89.28" font-family="Helvetica,sans-Serif" font-size="8.00" fill="#999999">sector&#45;condition</text>
<text xml:space="preserve" text-anchor="middle" x="54.07" y="-80.28" font-family="Helvetica,sans-Serif" font-size="8.00" fill="#999999">derivation</text>
</g>
<!-- sector&#45;condition&#45;derivation&#45;&gt;gain&#45;sector&#45;bridge -->
<g id="edge54" class="edge">
<title>sector&#45;condition&#45;derivation&#45;&gt;gain&#45;sector&#45;bridge</title>
<path fill="none" stroke="#cccccc" stroke-dasharray="5,2" d="M86.64,-91.84C206.33,-91.84 614.87,-91.84 614.87,-91.84 614.87,-91.84 614.87,-124.74 614.87,-124.74"/>
<polygon fill="#cccccc" stroke="#cccccc" points="613.12,-124.74 614.87,-129.74 616.62,-124.74 613.12,-124.74"/>
</g>
<!-- sector&#45;condition&#45;derivation&#45;&gt;sector&#45;condition&#45;stability -->
<g id="edge48" class="edge">
<title>sector&#45;condition&#45;derivation&#45;&gt;sector&#45;condition&#45;stability</title>
<path fill="none" stroke="#cccccc" stroke-dasharray="5,2" d="M86.59,-83.92C222.48,-83.92 737.87,-83.92 737.87,-83.92 737.87,-83.92 737.87,-124.56 737.87,-124.56"/>
<polygon fill="#cccccc" stroke="#cccccc" points="736.12,-124.56 737.87,-129.56 739.62,-124.56 736.12,-124.56"/>
</g>
</g>
</svg>
